<svg xmlns="http://www.w3.org/2000/svg" width="170" height="170" viewBox="0 0 170 170"><g transform="translate(-115 -1163)"><rect width="170" height="170" transform="translate(115 1163)" fill="#8496b0" opacity="0.15"/><g transform="translate(153 992)" opacity="0.5"><path d="M214.3,384.21v48.346a1.217,1.217,0,0,1-1.216,1.217H131.014a1.025,1.025,0,0,1-.174-.014,1.216,1.216,0,0,1-1.043-1.2V384.21a1.217,1.217,0,0,1,1.216-1.217h82.071a1.217,1.217,0,0,1,1.217,1.216Z" transform="translate(-125.063 -160.582)" fill="#e6e6e6"/><circle cx="10.678" cy="10.678" r="10.678" transform="translate(14.743 229.8)" fill="#8496b0"/><path d="M187.7,450.744H135.316a1.068,1.068,0,0,1-.2-.016L159.9,407.814a1.735,1.735,0,0,1,3.02,0l16.628,28.8.8,1.378Z" transform="translate(-128.794 -177.359)" fill="#3f3d56"/><path d="M154.985,370.006H137.1l8.78-12.753.632-.919.316-.46.8,1.378Z" transform="translate(-96.078 -96.621)" opacity="0.2"/><path d="M302.215,480.367H256.906l8.78-12.753.632-.919,11.441-16.62a2.315,2.315,0,0,1,3.436-.205,2.074,2.074,0,0,1,.165.205Z" transform="translate(-214.139 -206.981)" fill="#3f3d56"/><path d="M207.832,370.825a3.9,3.9,0,0,0-3.663-2.575h-86.3a3.89,3.89,0,0,0-3.892,3.892v68.217a3.9,3.9,0,0,0,3.892,3.892h86.3a3.9,3.9,0,0,0,3.892-3.892V372.142a3.862,3.862,0,0,0-.229-1.316Zm-.229,69.533a3.438,3.438,0,0,1-3.434,3.434h-86.3a3.438,3.438,0,0,1-3.434-3.434V372.142a3.438,3.438,0,0,1,3.434-3.434h86.3a3.438,3.438,0,0,1,3.434,3.434Z" transform="translate(-113.976 -150.25)" fill="#3f3d56"/></g></g></svg>