<svg xmlns="http://www.w3.org/2000/svg" xmlns:xlink="http://www.w3.org/1999/xlink" width="468" height="269" viewBox="0 0 468 269"><defs><clipPath id="a"><rect width="468" height="269" transform="translate(898 145)" fill="#fff" stroke="#707070" stroke-width="1"/></clipPath><linearGradient id="b" x1="0.5" y1="1" x2="0.5" gradientUnits="objectBoundingBox"><stop offset="0" stop-color="gray" stop-opacity="0.251"/><stop offset="0.54" stop-color="gray" stop-opacity="0.122"/><stop offset="1" stop-color="gray" stop-opacity="0.102"/></linearGradient><linearGradient id="c" y1="1" y2="0" xlink:href="#b"/><linearGradient id="d" x1="0" y1="0.5" x2="1" y2="0.5" xlink:href="#b"/><linearGradient id="e" y1="1" y2="0" xlink:href="#b"/><linearGradient id="f" x1="-25.357" y1="1.001" x2="-25.357" y2="0" xlink:href="#b"/></defs><g transform="translate(-898 -145)" clip-path="url(#a)"><g transform="translate(988.055 217.204) rotate(-21)" opacity="0.51"><rect width="183.014" height="220.815" transform="translate(166.57 31.917)" fill="url(#b)"/><rect width="178.336" height="215.173" transform="translate(168.909 34.741)" fill="#fff"/><rect width="71.919" height="3.508" transform="translate(238.197 59.006)" fill="#c0bccf"/><rect width="71.919" height="3.508" transform="translate(238.197 70.116)" fill="#c0bccf"/><rect width="37.421" height="3.508" transform="translate(255.446 81.225)" fill="#8496b0"/><rect width="71.919" height="3.508" transform="translate(238.197 129.464)" fill="#c0bccf" opacity="0.5"/><rect width="71.919" height="3.508" transform="translate(238.197 140.573)" fill="#c0bccf" opacity="0.5"/><rect width="37.421" height="3.508" transform="translate(255.446 151.683)" fill="#8496b0" opacity="0.5"/><rect width="71.919" height="3.508" transform="translate(238.197 199.921)" fill="#c0bccf" opacity="0.5"/><rect width="71.919" height="3.508" transform="translate(238.197 211.03)" fill="#c0bccf" opacity="0.5"/><rect width="37.421" height="3.508" transform="translate(255.446 222.14)" fill="#8496b0" opacity="0.5"/><g transform="translate(178.557 122.444)" opacity="0.5"><path d="M325.24,392.679a19.786,19.786,0,0,1-4.786,12.937c-.152.178-.31.354-.471.526q-.12.134-.246.263a19.51,19.51,0,0,1-2.122,1.927l-.053.038a19.428,19.428,0,0,1-3.771,2.315h0a19.608,19.608,0,0,1-2.117.848l-.266.085c-.164.056-.333.105-.5.152l-.067.02a19.976,19.976,0,0,1-10.978,0h-.029c-.292-.085-.585-.172-.854-.269l-.248-.088a19.278,19.278,0,0,1-2.748-1.216l-.056-.029a19.956,19.956,0,0,1-3.894-2.757l-.1-.091a18.575,18.575,0,0,1-1.7-1.754c-.07-.079-.137-.161-.2-.243-.129-.152-.251-.31-.374-.468a19.88,19.88,0,1,1,35.579-12.2Z" transform="translate(-285.48 -372.798)" fill="#c0bccf"/><path d="M329.919,409.986l-1.509-.678a5.994,5.994,0,0,0,.029-.69,5.417,5.417,0,0,0,0-.585c-.149-1.538-1.129-2.877-1.821-4.283a12.164,12.164,0,0,1-1.19-4.093c-.184-1.754,0-3.573-.643-5.221a9.422,9.422,0,0,0-2.666-3.423,13.534,13.534,0,0,0-4.283-2.716,7.574,7.574,0,0,0-5.1-.137,11.008,11.008,0,0,0-3.675,2.655,12.353,12.353,0,0,0-2.076,2.362,10.217,10.217,0,0,0-1.169,3.573,54.658,54.658,0,0,0-.719,5.97c-.114,1.669-.292,3.564-1.719,4.587-.7.5-1.675.781-1.994,1.538a1.573,1.573,0,0,0-.105.716,2.629,2.629,0,0,0,.044.605c.02.117.044.231.073.348a25.648,25.648,0,0,0-1.029,3.122c-.213.789-.409,1.564-.585,2.315h.725l2.725.064h.038l2.924.067h.015l2.725.064H309l.786.056h.257l10.9.251H321l.725.018h.254l2.181.05h0l3.216.073h.023l2.421.058h.754l-.129-2.538C330.974,410.228,329.919,409.986,329.919,409.986Zm-12.241-.31c0,2.152-2.3,4.786-2.3,4.786l-2.318-3.157.085-.123,2.234,3.04s2.3-2.631,2.3-4.786a2.525,2.525,0,0,1,.184-.316l.053.164A3.1,3.1,0,0,0,317.678,409.676Zm3.543,8.443a1.762,1.762,0,0,0-.02-.327c-.021-.108-.018-.2-.032-.31s-.026-.208-.041-.313-.035-.208-.056-.313-.041-.208-.064-.313a.489.489,0,0,0-.023-.105q-.048-.206-.105-.412c-.038-.137-.061-.222-.1-.33a.45.45,0,0,0-.047-.146c-.018-.047-.05-.158-.076-.237l-.053-.152c-.023-.067-.047-.137-.073-.2-.044-.123-.091-.243-.137-.365s-.1-.243-.146-.363c-.1-.246-.208-.488-.316-.734-.424-.947-.9-1.88-1.339-2.8a14.91,14.91,0,0,1-.626-1.485l-.056.073a3.1,3.1,0,0,0-.237.395c0,2.152-2.3,4.786-2.3,4.786l-2.318-3.157-2.029,2.924a2.366,2.366,0,0,0-.813,1.351c-.064.19-.126.4-.184.62-.041.149-.079.292-.114.459-.02.079-.038.158-.056.24l-.053.249v.038c-.035.17-.07.345-.1.523s-.07.383-.1.585q-.035.19-.061.377c-.041.243-.076.488-.111.734-.02.143-.041.292-.058.424l-.07.544c.149.447.316.877.488,1.327a2.088,2.088,0,0,1,.19.751,21.307,21.307,0,0,0,10.978,0,.1.1,0,0,1,0-.026,3.051,3.051,0,0,1-.07-.746h0a19.267,19.267,0,0,1,.292-2.093,7.151,7.151,0,0,0,.056-1.029v-.123c-.009-.111-.012-.211-.015-.307Zm0,0a1.762,1.762,0,0,0-.02-.327c-.021-.108-.018-.2-.032-.31s-.026-.208-.041-.313-.035-.208-.056-.313-.041-.208-.064-.313a.489.489,0,0,0-.023-.105q-.048-.206-.105-.412c-.038-.137-.061-.222-.1-.33a.45.45,0,0,0-.047-.146c-.018-.047-.05-.158-.076-.237l-.053-.152c-.023-.067-.047-.137-.073-.2-.044-.123-.091-.243-.137-.365s-.1-.243-.146-.363c-.1-.246-.208-.488-.316-.734-.424-.947-.9-1.88-1.339-2.8a14.91,14.91,0,0,1-.626-1.485l-.056.073a3.1,3.1,0,0,0-.237.395c0,2.152-2.3,4.786-2.3,4.786l-2.318-3.157-2.029,2.924a2.366,2.366,0,0,0-.813,1.351c-.064.19-.126.4-.184.62-.041.149-.079.292-.114.459-.02.079-.038.158-.056.24l-.053.249v.038c-.035.17-.07.345-.1.523s-.07.383-.1.585q-.035.19-.061.377c-.041.243-.076.488-.111.734-.02.143-.041.292-.058.424l-.07.544c.149.447.316.877.488,1.327a2.088,2.088,0,0,1,.19.751,21.307,21.307,0,0,0,10.978,0,.1.1,0,0,1,0-.026,3.051,3.051,0,0,1-.07-.746h0a19.267,19.267,0,0,1,.292-2.093,7.151,7.151,0,0,0,.056-1.029v-.123c-.009-.111-.012-.211-.015-.307Zm0,0a1.762,1.762,0,0,0-.02-.327c-.021-.108-.018-.2-.032-.31s-.026-.208-.041-.313-.035-.208-.056-.313-.041-.208-.064-.313a.489.489,0,0,0-.023-.105q-.048-.206-.105-.412c-.038-.137-.061-.222-.1-.33a.45.45,0,0,0-.047-.146c-.018-.047-.05-.158-.076-.237l-.053-.152c-.023-.067-.047-.137-.073-.2-.044-.123-.091-.243-.137-.365s-.1-.243-.146-.363c-.1-.246-.208-.488-.316-.734-.424-.947-.9-1.88-1.339-2.8a14.91,14.91,0,0,1-.626-1.485l-.056.073a3.1,3.1,0,0,0-.237.395c0,2.152-2.3,4.786-2.3,4.786l-2.318-3.157-2.029,2.924a2.366,2.366,0,0,0-.813,1.351c-.064.19-.126.4-.184.62-.041.149-.079.292-.114.459-.02.079-.038.158-.056.24l-.053.249v.038c-.035.17-.07.345-.1.523s-.07.383-.1.585q-.035.19-.061.377c-.041.243-.076.488-.111.734-.02.143-.041.292-.058.424l-.07.544c.149.447.316.877.488,1.327a2.088,2.088,0,0,1,.19.751,21.307,21.307,0,0,0,10.978,0,.1.1,0,0,1,0-.026,3.051,3.051,0,0,1-.07-.746h0a19.267,19.267,0,0,1,.292-2.093,7.151,7.151,0,0,0,.056-1.029v-.123c-.009-.111-.012-.211-.015-.307Zm0,0a1.762,1.762,0,0,0-.02-.327c-.021-.108-.018-.2-.032-.31s-.026-.208-.041-.313-.035-.208-.056-.313-.041-.208-.064-.313a.489.489,0,0,0-.023-.105q-.048-.206-.105-.412c-.038-.137-.061-.222-.1-.33a.45.45,0,0,0-.047-.146c-.018-.047-.05-.158-.076-.237l-.053-.152c-.023-.067-.047-.137-.073-.2-.044-.123-.091-.243-.137-.365s-.1-.243-.146-.363c-.1-.246-.208-.488-.316-.734-.424-.947-.9-1.88-1.339-2.8a14.91,14.91,0,0,1-.626-1.485l-.056.073a3.1,3.1,0,0,0-.237.395c0,2.152-2.3,4.786-2.3,4.786l-2.318-3.157-2.029,2.924a2.366,2.366,0,0,0-.813,1.351c-.064.19-.126.4-.184.62-.041.149-.079.292-.114.459-.02.079-.038.158-.056.24l-.053.249v.038c-.035.17-.07.345-.1.523s-.07.383-.1.585q-.035.19-.061.377c-.041.243-.076.488-.111.734-.02.143-.041.292-.058.424l-.07.544c.149.447.316.877.488,1.327a2.088,2.088,0,0,1,.19.751,21.307,21.307,0,0,0,10.978,0,.1.1,0,0,1,0-.026,3.051,3.051,0,0,1-.07-.746h0a19.267,19.267,0,0,1,.292-2.093,7.151,7.151,0,0,0,.056-1.029v-.123c-.009-.111-.012-.211-.015-.307Z" transform="translate(-295.599 -383.398)" fill="url(#c)"/><rect width="13.448" height="9.063" transform="translate(12.279 14.329)" fill="#493545"/><path d="M342.811,435.577l-5.628,7.929-5.882-.512s-7.674.509-2.558-5.371c2.459-2.827,3.263-5.183,3.435-6.865a5.316,5.316,0,0,0-.365-2.853l6.394-.766a4.771,4.771,0,0,0-.105,2.669C338.9,433.13,342.811,435.577,342.811,435.577Z" transform="translate(-314.85 -411.253)" fill="#c77485"/><path d="M349.779,429.786a6.391,6.391,0,0,1-5.923.953,5.316,5.316,0,0,0-.365-2.853l6.394-.766a4.771,4.771,0,0,0-.105,2.666Z" transform="translate(-326.531 -411.239)" opacity="0.1"/><circle cx="6.394" cy="6.394" r="6.394" transform="translate(12.998 6.801)" fill="#c77485"/><path d="M338.5,451.174l-.149-.585-.129-.515-.19-.76-.035-.14-.029-.117s.152-.459-.851-.31l-.187.032c-.158.032-.342.076-.553.134l-.19.058-.251.079h0a5.481,5.481,0,0,0-2.122,1.28,4.78,4.78,0,0,0-.71.859c-.02.029-.035.056-.053.079a2.768,2.768,0,0,0-.184.339c0,2.3-2.3,5.116-2.3,5.116l-2.248-3.248-.044-.064-.535-.778-.19-.251-.064-.088-1.169-1.57-.292-.392-.1-.132-.143-.19-.336-.447-1.316.769-1.754,1.023-1.023,6.651v.184l.032.55.213,3.613v.05l-.374,1.5.056.029a19.276,19.276,0,0,0,2.748,1.216l.249.088c.292.1.567.184.854.269a1.039,1.039,0,0,1,.023.132c0-.041,0-.085,0-.126a19.976,19.976,0,0,0,10.978,0l.067-.02c.167-.047.336-.1.5-.152l.266-.085a19.59,19.59,0,0,0,2.117-.848l.246-5.233.175-3.774v-.216Z" transform="translate(-310.771 -426.523)" opacity="0.1"/><path d="M336.549,461.522a2.021,2.021,0,0,0-.02-.351c-.02-.117-.018-.219-.032-.33s-.026-.222-.041-.333-.035-.222-.056-.333-.041-.222-.064-.333a.5.5,0,0,0-.023-.111c-.032-.146-.067-.292-.105-.441s-.061-.237-.1-.354a.5.5,0,0,0-.047-.155c-.018-.05-.05-.17-.076-.254l-.053-.164c-.023-.073-.047-.146-.073-.219-.044-.131-.091-.26-.137-.392s-.1-.26-.146-.389c-.1-.263-.208-.523-.316-.784-.424-1.012-.9-2.008-1.339-3a16.555,16.555,0,0,1-.626-1.588l-.056.079a3.373,3.373,0,0,0-.237.421c0,2.3-2.3,5.116-2.3,5.116l-2.318-3.377-2.029,3.119a2.548,2.548,0,0,0-.813,1.444c-.064.2-.126.427-.184.664-.041.158-.079.324-.114.491-.02.085-.038.17-.056.257l-.053.266v.041c-.035.181-.07.368-.1.558s-.07.409-.1.617q-.035.2-.061.4c-.041.26-.076.523-.111.784-.02.152-.041.292-.058.453l-.07.585c.149.479.316.953.488,1.418a2.356,2.356,0,0,1,.19.8,19.977,19.977,0,0,0,10.978,0,.115.115,0,0,1,0-.029,3.481,3.481,0,0,1-.07-.8h0a21.924,21.924,0,0,1,.292-2.237,8.177,8.177,0,0,0,.056-1.1v-.132C336.555,461.733,336.552,461.628,336.549,461.522Zm0,0a2.021,2.021,0,0,0-.02-.351c-.02-.117-.018-.219-.032-.33s-.026-.222-.041-.333-.035-.222-.056-.333-.041-.222-.064-.333a.5.5,0,0,0-.023-.111c-.032-.146-.067-.292-.105-.441s-.061-.237-.1-.354a.5.5,0,0,0-.047-.155c-.018-.05-.05-.17-.076-.254l-.053-.164c-.023-.073-.047-.146-.073-.219-.044-.131-.091-.26-.137-.392s-.1-.26-.146-.389c-.1-.263-.208-.523-.316-.784-.424-1.012-.9-2.008-1.339-3a16.555,16.555,0,0,1-.626-1.588l-.056.079a3.373,3.373,0,0,0-.237.421c0,2.3-2.3,5.116-2.3,5.116l-2.318-3.377-2.029,3.119a2.548,2.548,0,0,0-.813,1.444c-.064.2-.126.427-.184.664-.041.158-.079.324-.114.491-.02.085-.038.17-.056.257l-.053.266v.041c-.035.181-.07.368-.1.558s-.07.409-.1.617q-.035.2-.061.4c-.041.26-.076.523-.111.784-.02.152-.041.292-.058.453l-.07.585c.149.479.316.953.488,1.418a2.356,2.356,0,0,1,.19.8,19.977,19.977,0,0,0,10.978,0,.115.115,0,0,1,0-.029,3.481,3.481,0,0,1-.07-.8h0a21.924,21.924,0,0,1,.292-2.237,8.177,8.177,0,0,0,.056-1.1v-.132C336.555,461.733,336.552,461.628,336.549,461.522Zm0,0a2.021,2.021,0,0,0-.02-.351c-.02-.117-.018-.219-.032-.33s-.026-.222-.041-.333-.035-.222-.056-.333-.041-.222-.064-.333a.5.5,0,0,0-.023-.111c-.032-.146-.067-.292-.105-.441s-.061-.237-.1-.354a.5.5,0,0,0-.047-.155c-.018-.05-.05-.17-.076-.254l-.053-.164c-.023-.073-.047-.146-.073-.219-.044-.131-.091-.26-.137-.392s-.1-.26-.146-.389c-.1-.263-.208-.523-.316-.784-.424-1.012-.9-2.008-1.339-3a16.555,16.555,0,0,1-.626-1.588l-.056.079a3.373,3.373,0,0,0-.237.421c0,2.3-2.3,5.116-2.3,5.116l-2.318-3.377-2.029,3.119a2.548,2.548,0,0,0-.813,1.444c-.064.2-.126.427-.184.664-.041.158-.079.324-.114.491-.02.085-.038.17-.056.257l-.053.266v.041c-.035.181-.07.368-.1.558s-.07.409-.1.617q-.035.2-.061.4c-.041.26-.076.523-.111.784-.02.152-.041.292-.058.453l-.07.585c.149.479.316.953.488,1.418a2.356,2.356,0,0,1,.19.8,19.977,19.977,0,0,0,10.978,0,.115.115,0,0,1,0-.029,3.481,3.481,0,0,1-.07-.8h0a21.924,21.924,0,0,1,.292-2.237,8.177,8.177,0,0,0,.056-1.1v-.132C336.555,461.733,336.552,461.628,336.549,461.522Zm3.1-5.487-1.044-4.166-.178-.713-.05-.2h0l-.254-1.017a.189.189,0,0,0,0-.026h0a.234.234,0,0,0-.02-.132c-.038-.076-.134-.155-.36-.175a1.809,1.809,0,0,0-.257,0h0a4.45,4.45,0,0,0-.751.14c-.12.032-.249.067-.386.111l-.251.079h-.023a5.579,5.579,0,0,0-1.842,1.023,4.97,4.97,0,0,0-.936,1.035l-.056.079a3.376,3.376,0,0,0-.237.421c0,2.3-2.3,5.116-2.3,5.116l-2.318-3.377-.132-.19-.023-.032-.336-.494-.254-.339-.067-.088-1.2-1.6h0l-.38-.517v-.018l-.132-.178-.251-.333-.877.512-2.193,1.278-1.012,6.581v.07l.029.479.216,3.663v.208l-.33,1.319a19.273,19.273,0,0,0,2.748,1.216l.249.088c.292.1.567.184.854.269a1.026,1.026,0,0,1,.023.132v-.126a19.976,19.976,0,0,0,10.978,0l.067-.02c.167-.047.336-.1.5-.152l.266-.085a19.592,19.592,0,0,0,2.117-.848h0l.243-5.227.175-3.733ZM325.27,466.13a1.031,1.031,0,0,1,.023.132c0-.041,0-.085,0-.126Zm11.279-4.607a2.021,2.021,0,0,0-.02-.351c-.02-.117-.018-.219-.032-.33s-.026-.222-.041-.333-.035-.222-.056-.333-.041-.222-.064-.333a.5.5,0,0,0-.023-.111c-.032-.146-.067-.292-.105-.441s-.061-.237-.1-.354a.5.5,0,0,0-.047-.155c-.018-.05-.05-.17-.076-.254l-.053-.164c-.023-.073-.047-.146-.073-.219-.044-.131-.091-.26-.137-.392s-.1-.26-.146-.389c-.1-.263-.208-.523-.316-.784-.424-1.012-.9-2.008-1.339-3a16.555,16.555,0,0,1-.626-1.588l-.056.079a3.373,3.373,0,0,0-.237.421c0,2.3-2.3,5.116-2.3,5.116l-2.318-3.377-2.029,3.119a2.548,2.548,0,0,0-.813,1.444c-.064.2-.126.427-.184.664-.041.158-.079.324-.114.491-.02.085-.038.17-.056.257l-.053.266v.041c-.035.181-.07.368-.1.558s-.07.409-.1.617q-.035.2-.061.4c-.041.26-.076.523-.111.784-.02.152-.041.292-.058.453l-.07.585c.149.479.316.953.488,1.418a2.356,2.356,0,0,1,.19.8,19.977,19.977,0,0,0,10.978,0,.115.115,0,0,1,0-.029,3.481,3.481,0,0,1-.07-.8h0a21.924,21.924,0,0,1,.292-2.237,8.177,8.177,0,0,0,.056-1.1v-.132C336.555,461.733,336.552,461.628,336.549,461.522Zm0,0a2.021,2.021,0,0,0-.02-.351c-.02-.117-.018-.219-.032-.33s-.026-.222-.041-.333-.035-.222-.056-.333-.041-.222-.064-.333a.5.5,0,0,0-.023-.111c-.032-.146-.067-.292-.105-.441s-.061-.237-.1-.354a.5.5,0,0,0-.047-.155c-.018-.05-.05-.17-.076-.254l-.053-.164c-.023-.073-.047-.146-.073-.219-.044-.131-.091-.26-.137-.392s-.1-.26-.146-.389c-.1-.263-.208-.523-.316-.784-.424-1.012-.9-2.008-1.339-3a16.555,16.555,0,0,1-.626-1.588l-.056.079a3.373,3.373,0,0,0-.237.421c0,2.3-2.3,5.116-2.3,5.116l-2.318-3.377-2.029,3.119a2.548,2.548,0,0,0-.813,1.444c-.064.2-.126.427-.184.664-.041.158-.079.324-.114.491-.02.085-.038.17-.056.257l-.053.266v.041c-.035.181-.07.368-.1.558s-.07.409-.1.617q-.035.2-.061.4c-.041.26-.076.523-.111.784-.02.152-.041.292-.058.453l-.07.585c.149.479.316.953.488,1.418a2.356,2.356,0,0,1,.19.8,19.977,19.977,0,0,0,10.978,0,.115.115,0,0,1,0-.029,3.481,3.481,0,0,1-.07-.8h0a21.924,21.924,0,0,1,.292-2.237,8.177,8.177,0,0,0,.056-1.1v-.132C336.555,461.733,336.552,461.628,336.549,461.522Zm0,0a2.021,2.021,0,0,0-.02-.351c-.02-.117-.018-.219-.032-.33s-.026-.222-.041-.333-.035-.222-.056-.333-.041-.222-.064-.333a.5.5,0,0,0-.023-.111c-.032-.146-.067-.292-.105-.441s-.061-.237-.1-.354a.5.5,0,0,0-.047-.155c-.018-.05-.05-.17-.076-.254l-.053-.164c-.023-.073-.047-.146-.073-.219-.044-.131-.091-.26-.137-.392s-.1-.26-.146-.389c-.1-.263-.208-.523-.316-.784-.424-1.012-.9-2.008-1.339-3a16.555,16.555,0,0,1-.626-1.588l-.056.079a3.373,3.373,0,0,0-.237.421c0,2.3-2.3,5.116-2.3,5.116l-2.318-3.377-2.029,3.119a2.548,2.548,0,0,0-.813,1.444c-.064.2-.126.427-.184.664-.041.158-.079.324-.114.491-.02.085-.038.17-.056.257l-.053.266v.041c-.035.181-.07.368-.1.558s-.07.409-.1.617q-.035.2-.061.4c-.041.26-.076.523-.111.784-.02.152-.041.292-.058.453l-.07.585c.149.479.316.953.488,1.418a2.356,2.356,0,0,1,.19.8,19.977,19.977,0,0,0,10.978,0,.115.115,0,0,1,0-.029,3.481,3.481,0,0,1-.07-.8h0a21.924,21.924,0,0,1,.292-2.237,8.177,8.177,0,0,0,.056-1.1v-.132C336.555,461.733,336.552,461.628,336.549,461.522Zm0,0a2.021,2.021,0,0,0-.02-.351c-.02-.117-.018-.219-.032-.33s-.026-.222-.041-.333-.035-.222-.056-.333-.041-.222-.064-.333a.5.5,0,0,0-.023-.111c-.032-.146-.067-.292-.105-.441s-.061-.237-.1-.354a.5.5,0,0,0-.047-.155c-.018-.05-.05-.17-.076-.254l-.053-.164c-.023-.073-.047-.146-.073-.219-.044-.131-.091-.26-.137-.392s-.1-.26-.146-.389c-.1-.263-.208-.523-.316-.784-.424-1.012-.9-2.008-1.339-3a16.555,16.555,0,0,1-.626-1.588l-.056.079a3.373,3.373,0,0,0-.237.421c0,2.3-2.3,5.116-2.3,5.116l-2.318-3.377-2.029,3.119a2.548,2.548,0,0,0-.813,1.444c-.064.2-.126.427-.184.664-.041.158-.079.324-.114.491-.02.085-.038.17-.056.257l-.053.266v.041c-.035.181-.07.368-.1.558s-.07.409-.1.617q-.035.2-.061.4c-.041.26-.076.523-.111.784-.02.152-.041.292-.058.453l-.07.585c.149.479.316.953.488,1.418a2.356,2.356,0,0,1,.19.8,19.977,19.977,0,0,0,10.978,0,.115.115,0,0,1,0-.029,3.481,3.481,0,0,1-.07-.8h0a21.924,21.924,0,0,1,.292-2.237,8.177,8.177,0,0,0,.056-1.1v-.132C336.555,461.733,336.552,461.628,336.549,461.522Zm0,0a2.021,2.021,0,0,0-.02-.351c-.02-.117-.018-.219-.032-.33s-.026-.222-.041-.333-.035-.222-.056-.333-.041-.222-.064-.333a.5.5,0,0,0-.023-.111c-.032-.146-.067-.292-.105-.441s-.061-.237-.1-.354a.5.5,0,0,0-.047-.155c-.018-.05-.05-.17-.076-.254l-.053-.164c-.023-.073-.047-.146-.073-.219-.044-.131-.091-.26-.137-.392s-.1-.26-.146-.389c-.1-.263-.208-.523-.316-.784-.424-1.012-.9-2.008-1.339-3a16.555,16.555,0,0,1-.626-1.588l-.056.079a3.373,3.373,0,0,0-.237.421c0,2.3-2.3,5.116-2.3,5.116l-2.318-3.377-2.029,3.119a2.548,2.548,0,0,0-.813,1.444c-.064.2-.126.427-.184.664-.041.158-.079.324-.114.491-.02.085-.038.17-.056.257l-.053.266v.041c-.035.181-.07.368-.1.558s-.07.409-.1.617q-.035.2-.061.4c-.041.26-.076.523-.111.784-.02.152-.041.292-.058.453l-.07.585c.149.479.316.953.488,1.418a2.356,2.356,0,0,1,.19.8,19.977,19.977,0,0,0,10.978,0,.115.115,0,0,1,0-.029,3.481,3.481,0,0,1-.07-.8h0a21.924,21.924,0,0,1,.292-2.237,8.177,8.177,0,0,0,.056-1.1v-.132C336.555,461.733,336.552,461.628,336.549,461.522Zm0,0a2.021,2.021,0,0,0-.02-.351c-.02-.117-.018-.219-.032-.33s-.026-.222-.041-.333-.035-.222-.056-.333-.041-.222-.064-.333a.5.5,0,0,0-.023-.111c-.032-.146-.067-.292-.105-.441s-.061-.237-.1-.354a.5.5,0,0,0-.047-.155c-.018-.05-.05-.17-.076-.254l-.053-.164c-.023-.073-.047-.146-.073-.219-.044-.131-.091-.26-.137-.392s-.1-.26-.146-.389c-.1-.263-.208-.523-.316-.784-.424-1.012-.9-2.008-1.339-3a16.555,16.555,0,0,1-.626-1.588l-.056.079a3.373,3.373,0,0,0-.237.421c0,2.3-2.3,5.116-2.3,5.116l-2.318-3.377-2.029,3.119a2.548,2.548,0,0,0-.813,1.444c-.064.2-.126.427-.184.664-.041.158-.079.324-.114.491-.02.085-.038.17-.056.257l-.053.266v.041c-.035.181-.07.368-.1.558s-.07.409-.1.617q-.035.2-.061.4c-.041.26-.076.523-.111.784-.02.152-.041.292-.058.453l-.07.585c.149.479.316.953.488,1.418a2.356,2.356,0,0,1,.19.8,19.977,19.977,0,0,0,10.978,0,.115.115,0,0,1,0-.029,3.481,3.481,0,0,1-.07-.8h0a21.924,21.924,0,0,1,.292-2.237,8.177,8.177,0,0,0,.056-1.1v-.132C336.555,461.733,336.552,461.628,336.549,461.522Zm0,0a2.021,2.021,0,0,0-.02-.351c-.02-.117-.018-.219-.032-.33s-.026-.222-.041-.333-.035-.222-.056-.333-.041-.222-.064-.333a.5.5,0,0,0-.023-.111c-.032-.146-.067-.292-.105-.441s-.061-.237-.1-.354a.5.5,0,0,0-.047-.155c-.018-.05-.05-.17-.076-.254l-.053-.164c-.023-.073-.047-.146-.073-.219-.044-.131-.091-.26-.137-.392s-.1-.26-.146-.389c-.1-.263-.208-.523-.316-.784-.424-1.012-.9-2.008-1.339-3a16.555,16.555,0,0,1-.626-1.588l-.056.079a3.373,3.373,0,0,0-.237.421c0,2.3-2.3,5.116-2.3,5.116l-2.318-3.377-2.029,3.119a2.548,2.548,0,0,0-.813,1.444c-.064.2-.126.427-.184.664-.041.158-.079.324-.114.491-.02.085-.038.17-.056.257l-.053.266v.041c-.035.181-.07.368-.1.558s-.07.409-.1.617q-.035.2-.061.4c-.041.26-.076.523-.111.784-.02.152-.041.292-.058.453l-.07.585c.149.479.316.953.488,1.418a2.356,2.356,0,0,1,.19.8,19.977,19.977,0,0,0,10.978,0,.115.115,0,0,1,0-.029,3.481,3.481,0,0,1-.07-.8h0a21.924,21.924,0,0,1,.292-2.237,8.177,8.177,0,0,0,.056-1.1v-.132C336.555,461.733,336.552,461.628,336.549,461.522Zm0,0a2.021,2.021,0,0,0-.02-.351c-.02-.117-.018-.219-.032-.33s-.026-.222-.041-.333-.035-.222-.056-.333-.041-.222-.064-.333a.5.5,0,0,0-.023-.111c-.032-.146-.067-.292-.105-.441s-.061-.237-.1-.354a.5.5,0,0,0-.047-.155c-.018-.05-.05-.17-.076-.254l-.053-.164c-.023-.073-.047-.146-.073-.219-.044-.131-.091-.26-.137-.392s-.1-.26-.146-.389c-.1-.263-.208-.523-.316-.784-.424-1.012-.9-2.008-1.339-3a16.555,16.555,0,0,1-.626-1.588l-.056.079a3.373,3.373,0,0,0-.237.421c0,2.3-2.3,5.116-2.3,5.116l-2.318-3.377-2.029,3.119a2.548,2.548,0,0,0-.813,1.444c-.064.2-.126.427-.184.664-.041.158-.079.324-.114.491-.02.085-.038.17-.056.257l-.053.266v.041c-.035.181-.07.368-.1.558s-.07.409-.1.617q-.035.2-.061.4c-.041.26-.076.523-.111.784-.02.152-.041.292-.058.453l-.07.585c.149.479.316.953.488,1.418a2.356,2.356,0,0,1,.19.8,19.977,19.977,0,0,0,10.978,0,.115.115,0,0,1,0-.029,3.481,3.481,0,0,1-.07-.8h0a21.924,21.924,0,0,1,.292-2.237,8.177,8.177,0,0,0,.056-1.1v-.132C336.555,461.733,336.552,461.628,336.549,461.522Z" transform="translate(-310.927 -427.15)" fill="#fff"/><path d="M314.47,454.219l-.2-.026a7.111,7.111,0,0,1-.877-.175l-.108-.029c-.713-.2-1.494-.564-1.669-1.2a1.138,1.138,0,0,1,.018-.623,5.339,5.339,0,0,1,.4-1.006v-.018a1.407,1.407,0,0,1,.073-.132,2.924,2.924,0,0,1,1.055-1.149l-.351.056-2.97.482-4.6.743s-.819-.164-1.932,2.906a.475.475,0,0,1-.038.114c-.269.751-.553,1.69-.845,2.862-.2.813-.386,1.611-.555,2.386-.05.234-.1.465-.146.693a18.578,18.578,0,0,0,1.7,1.754l.1.091a19.957,19.957,0,0,0,3.894,2.757l.056.029a19.274,19.274,0,0,0,2.748,1.216l.249.088c.053-.541.111-1.14.181-1.754a.5.5,0,0,1,.023-.184l.07-.585c.018-.149.038-.292.058-.453.035-.26.07-.523.111-.784q.026-.2.061-.4c.032-.208.067-.415.1-.617s.067-.377.1-.558v-.041l.053-.266c.018-.088.035-.172.056-.257.035-.167.073-.333.114-.491.058-.237.12-.459.184-.664a2.5,2.5,0,0,1,.813-1.444l2.029-3.119.085-.132.038-.058Z" transform="translate(-296.972 -427.331)" opacity="0.1"/><path d="M313.8,454.239l-2.155,3.309a2.472,2.472,0,0,0-.8,1.4c-.067.216-.134.453-.2.7a34.959,34.959,0,0,0-.661,3.827.455.455,0,0,1-.023.175c-.1.813-.181,1.611-.249,2.315a19.278,19.278,0,0,1-2.748-1.216l-.056-.029a19.955,19.955,0,0,1-3.894-2.757l-.1-.091a18.582,18.582,0,0,1-1.7-1.754c-.07-.079-.137-.161-.2-.243.032-.152.064-.292.1-.456.167-.775.351-1.57.553-2.38a28.807,28.807,0,0,1,.994-3.274.89.89,0,0,1,.038-.094c1.035-2.663,1.78-2.514,1.78-2.514l4.862-.783,3.07-.5-.1.056a3.114,3.114,0,0,0-.845.9l-.085.143c-.035.056-.067.117-.1.178a5.181,5.181,0,0,0-.4,1.023,1.076,1.076,0,0,0,.07.836,2.784,2.784,0,0,0,1.8,1.047l.114.029A7.33,7.33,0,0,0,313.8,454.239Z" transform="translate(-296.477 -427.345)" fill="#444176"/><path d="M380.579,458.343l-.12-2.6c.512-4.093-.512-4.347-.512-4.347l-1.216-.585H378.7l-4.891-2.371-.19-.094-.058-.026h0l-.637-.31h0l-.4-.2-.754-.365-.254-.123v1.014c0,.292.026.634.05,1.032.053,1,.149,2.339.322,3.918.1.915.219,1.915.371,2.988.091.634.155,1.266.2,1.883a33.132,33.132,0,0,1-.193,6.227l.266-.085a19.588,19.588,0,0,0,2.117-.848h0a19.426,19.426,0,0,0,3.771-2.315l.053-.038a19.506,19.506,0,0,0,2.122-1.927Z" transform="translate(-346.359 -425.54)" opacity="0.1"/><path d="M381.445,458.308l-.12-2.6c.512-4.093-.512-4.347-.512-4.347l-1.462-.707h-.029l-4.906-2.38-.225-.108-.044-.02-.36-.175-.477-.231-.941-.456v.415h0v.514c0,.292.026.675.053,1.111.05.933.137,2.155.292,3.608.105,1,.237,2.1.409,3.3q.134.956.193,1.892a33.091,33.091,0,0,1-.181,6.139,19.586,19.586,0,0,0,2.117-.848h0a19.423,19.423,0,0,0,3.771-2.315l.053-.038a19.509,19.509,0,0,0,2.122-1.927q.129-.129.246-.263Z" transform="translate(-346.967 -425.505)" fill="#444176"/><path d="M320.832,391.462a4.253,4.253,0,0,0-.4,1.462c-.313,1.143-1.552,1.859-1.836,3.011-.167.672.026,1.386-.088,2.07-.208,1.26-1.359,2.114-2,3.216a4.338,4.338,0,0,0-.266,3.771,6.046,6.046,0,0,1,.371.953,3.482,3.482,0,0,1-.091,1.462,4.633,4.633,0,0,0,.058,3.125,2.991,2.991,0,0,0,2.19,1.4,8.51,8.51,0,0,0,2.681-.123,7.757,7.757,0,0,0,2.8-.819l-3.166-7.642a6.378,6.378,0,0,1-.643-2.406,5.29,5.29,0,0,1,.395-1.8,15.553,15.553,0,0,1,2.631-4.546c.459.532.424,1.342.807,1.932a3.049,3.049,0,0,0,1.3.974,43.207,43.207,0,0,0,4.616,1.93.605.605,0,0,1,.45.9l-1.193,4.923c-.263,1.085-.494,2.339.181,3.216s2.2,1.292,2.207,2.424a3.888,3.888,0,0,0,0,.538c.079.529.707.783,1.242.81a3.7,3.7,0,0,0,3.716-3.032c.292-1.935-.988-3.719-1.523-5.6-.9-3.172.292-6.894-1.476-9.68-1.432-2.26-4.043-2.874-6.522-3.155C325.536,390.576,322.057,389.845,320.832,391.462Z" transform="translate(-307.027 -385.281)" opacity="0.1"/><path d="M320.832,390.462a4.253,4.253,0,0,0-.4,1.462c-.313,1.143-1.552,1.859-1.836,3.011-.167.672.026,1.386-.088,2.07-.208,1.26-1.359,2.114-2,3.216a4.338,4.338,0,0,0-.266,3.771,6.042,6.042,0,0,1,.371.953,3.482,3.482,0,0,1-.091,1.462,4.633,4.633,0,0,0,.058,3.125,2.991,2.991,0,0,0,2.19,1.4,8.511,8.511,0,0,0,2.681-.123,7.756,7.756,0,0,0,2.8-.819l-3.166-7.642a6.378,6.378,0,0,1-.643-2.406,5.29,5.29,0,0,1,.395-1.8,15.553,15.553,0,0,1,2.631-4.546c.459.532.424,1.342.807,1.932a3.049,3.049,0,0,0,1.3.974,43.2,43.2,0,0,0,4.616,1.93.605.605,0,0,1,.45.9l-1.193,4.923c-.263,1.085-.494,2.339.181,3.216s2.2,1.292,2.207,2.424a3.888,3.888,0,0,0,0,.538c.079.529.707.784,1.242.81a3.7,3.7,0,0,0,3.716-3.032c.292-1.935-.988-3.719-1.523-5.6-.9-3.172.292-6.894-1.476-9.68-1.432-2.26-4.043-2.874-6.522-3.155C325.536,389.576,322.057,388.845,320.832,390.462Z" transform="translate(-307.027 -384.573)" fill="#493545"/></g><g transform="translate(178.557 192.901)" opacity="0.5"><path d="M325.24,633.679a19.786,19.786,0,0,1-4.786,12.937c-.152.178-.31.354-.471.526q-.12.134-.246.263a19.5,19.5,0,0,1-2.122,1.927l-.053.038a19.426,19.426,0,0,1-3.771,2.315h0a19.583,19.583,0,0,1-2.117.848l-.266.085c-.164.055-.333.105-.5.152l-.067.02a19.978,19.978,0,0,1-10.978,0h-.029c-.292-.085-.585-.172-.854-.269l-.248-.088a19.271,19.271,0,0,1-2.748-1.216l-.056-.029a19.953,19.953,0,0,1-3.894-2.757l-.1-.091a18.568,18.568,0,0,1-1.7-1.754c-.07-.079-.137-.161-.2-.243-.129-.152-.251-.31-.374-.468a19.88,19.88,0,1,1,35.579-12.2Z" transform="translate(-285.48 -613.798)" fill="#c0bccf"/><path d="M330.94,655.712l-.12-2.631c.512-4.16-.512-4.42-.512-4.42l-1.462-.719-.029-.015-4.906-2.418-.225-.111-.029-.12s.1-.292-.389-.342a1.782,1.782,0,0,1-.123-.746,3.2,3.2,0,0,1,.8-1.462,6,6,0,0,0,.962-4.26,10.018,10.018,0,0,0-1.631-4.116l-.094-.137a4.953,4.953,0,0,0,.172-1.292c0-3.365-3.4-6.093-7.6-6.093-3.8,0-6.967,2.248-7.516,5.18a2.666,2.666,0,0,0-.231.362c-.772,1.444.421,2.523.459,3.964a5.126,5.126,0,0,1-1.169,2.687,2.688,2.688,0,0,0-.377,2.792c.178.275.447.482.608.769.564,1-.374,2.14-.716,3.233a3.1,3.1,0,0,0-.094.389l-2.257.368s-.746-.152-1.78,2.555a.922.922,0,0,0-.038.1,29.636,29.636,0,0,0-.994,3.33q-.3,1.237-.553,2.418c-.035.155-.067.31-.1.465.067.082.134.167.2.246a18.739,18.739,0,0,0,1.7,1.789l.1.094a19.964,19.964,0,0,0,3.894,2.8l.056.029a19.12,19.12,0,0,0,2.748,1.237l.248.088c.292.1.567.187.854.275a1.055,1.055,0,0,1,.023.134v-.129a19.664,19.664,0,0,0,10.978,0l.067-.02c.167-.047.336-.1.5-.155l.266-.085a19.71,19.71,0,0,0,5.888-3.216l.053-.038a19.626,19.626,0,0,0,2.122-1.959q.129-.129.246-.266Z" transform="translate(-296.463 -623.02)" fill="url(#d)"/><path d="M322.173,648.706A4.919,4.919,0,0,1,321,651.337a2.6,2.6,0,0,0-.377,2.745c.178.269.447.477.608.757.564.979-.374,2.1-.716,3.181a3.993,3.993,0,0,0,.895,3.64,9.687,9.687,0,0,0,3.134,2.289,27.968,27.968,0,0,0,7.753,2.76,7.422,7.422,0,0,0,4.251-.19,4.52,4.52,0,0,0,2.552-4.97c-.336-1.538-1.462-2.774-2.047-4.227a1.978,1.978,0,0,1-.193-.915,3.089,3.089,0,0,1,.8-1.433,5.847,5.847,0,0,0,.947-4.16,9.764,9.764,0,0,0-1.631-4.052,4.437,4.437,0,0,0-1.169-1.286,5.131,5.131,0,0,0-2.187-.661c-3.175-.444-6.464-.93-9.665-1.093a2.074,2.074,0,0,0-2.254,1.093C320.945,646.227,322.135,647.288,322.173,648.706Z" transform="translate(-310.166 -634.967)" fill="#444176"/><path d="M346.591,675.92l-6.025,8.569-5.882-.512s-.193,2.046-2.558-5.371c-1.321-4.148,1.365-2.707,1.895-3.856s1.462-2.163,1.541-3.011a5.316,5.316,0,0,0-.365-2.853l6.394-.766a4.771,4.771,0,0,0-.105,2.669C342.284,674.116,346.591,675.92,346.591,675.92Z" transform="translate(-318.232 -652.239)" fill="#c77485"/><ellipse cx="7.601" cy="5.993" rx="7.601" ry="5.993" transform="translate(11.694 4.389)" fill="#444176"/><path d="M349.779,670.786a6.391,6.391,0,0,1-5.923.953,5.316,5.316,0,0,0-.365-2.853l6.394-.766A4.771,4.771,0,0,0,349.779,670.786Z" transform="translate(-326.531 -652.239)" opacity="0.1"/><circle cx="6.394" cy="6.394" r="6.394" transform="translate(12.998 6.801)" fill="#c77485"/><path d="M338.5,692.174l-.149-.585-.129-.514-.19-.76-.035-.14-.029-.117s.152-.459-.851-.31l-.187.032c-.158.032-.342.076-.553.134l-.19.058-.251.079h0a5.482,5.482,0,0,0-2.122,1.281,4.776,4.776,0,0,0-.71.859c-.02.029-.035.056-.053.079a2.761,2.761,0,0,0-.184.339c0,2.3-2.3,5.116-2.3,5.116l-2.248-3.248-.044-.064-.535-.778-.19-.251-.064-.088-1.169-1.57-.292-.392-.1-.132-.143-.19-.336-.447-1.316.769-1.754,1.023-1.023,6.651v.184l.032.55.213,3.614v.05l-.374,1.5.056.029a19.279,19.279,0,0,0,2.748,1.216l.249.088c.292.1.567.184.854.269a1.038,1.038,0,0,1,.023.132v-.126a19.977,19.977,0,0,0,10.978,0l.067-.021c.167-.047.336-.1.5-.152l.266-.085a19.584,19.584,0,0,0,2.117-.848l.246-5.233.175-3.774v-.216Z" transform="translate(-310.771 -667.523)" opacity="0.1"/><path d="M336.549,702.522a2.02,2.02,0,0,0-.02-.351c-.02-.117-.018-.219-.032-.33s-.026-.222-.041-.333-.035-.222-.056-.333-.041-.222-.064-.333a.5.5,0,0,0-.023-.111c-.032-.146-.067-.292-.105-.441s-.061-.237-.1-.354a.5.5,0,0,0-.047-.155c-.018-.05-.05-.17-.076-.254l-.053-.164c-.023-.073-.047-.146-.073-.219-.044-.132-.091-.26-.137-.392s-.1-.26-.146-.389c-.1-.263-.208-.523-.316-.784-.424-1.012-.9-2.008-1.339-3a16.562,16.562,0,0,1-.626-1.587l-.056.079a3.373,3.373,0,0,0-.237.421c0,2.3-2.3,5.116-2.3,5.116l-2.318-3.377-2.029,3.12a2.548,2.548,0,0,0-.813,1.444c-.064.2-.126.427-.184.664-.041.158-.079.324-.114.491-.02.085-.038.17-.056.257l-.053.266v.041c-.035.181-.07.368-.1.558s-.07.409-.1.617q-.035.2-.061.4c-.041.26-.076.523-.111.783-.02.152-.041.292-.058.453l-.07.585c.149.479.316.953.488,1.418a2.356,2.356,0,0,1,.19.8,19.976,19.976,0,0,0,10.978,0,.115.115,0,0,1,0-.029,3.482,3.482,0,0,1-.07-.8h0a21.926,21.926,0,0,1,.292-2.237,8.176,8.176,0,0,0,.056-1.1v-.132C336.555,702.733,336.552,702.628,336.549,702.522Zm0,0a2.02,2.02,0,0,0-.02-.351c-.02-.117-.018-.219-.032-.33s-.026-.222-.041-.333-.035-.222-.056-.333-.041-.222-.064-.333a.5.5,0,0,0-.023-.111c-.032-.146-.067-.292-.105-.441s-.061-.237-.1-.354a.5.5,0,0,0-.047-.155c-.018-.05-.05-.17-.076-.254l-.053-.164c-.023-.073-.047-.146-.073-.219-.044-.132-.091-.26-.137-.392s-.1-.26-.146-.389c-.1-.263-.208-.523-.316-.784-.424-1.012-.9-2.008-1.339-3a16.562,16.562,0,0,1-.626-1.587l-.056.079a3.373,3.373,0,0,0-.237.421c0,2.3-2.3,5.116-2.3,5.116l-2.318-3.377-2.029,3.12a2.548,2.548,0,0,0-.813,1.444c-.064.2-.126.427-.184.664-.041.158-.079.324-.114.491-.02.085-.038.17-.056.257l-.053.266v.041c-.035.181-.07.368-.1.558s-.07.409-.1.617q-.035.2-.061.4c-.041.26-.076.523-.111.783-.02.152-.041.292-.058.453l-.07.585c.149.479.316.953.488,1.418a2.356,2.356,0,0,1,.19.8,19.976,19.976,0,0,0,10.978,0,.115.115,0,0,1,0-.029,3.482,3.482,0,0,1-.07-.8h0a21.926,21.926,0,0,1,.292-2.237,8.176,8.176,0,0,0,.056-1.1v-.132C336.555,702.733,336.552,702.628,336.549,702.522Zm0,0a2.02,2.02,0,0,0-.02-.351c-.02-.117-.018-.219-.032-.33s-.026-.222-.041-.333-.035-.222-.056-.333-.041-.222-.064-.333a.5.5,0,0,0-.023-.111c-.032-.146-.067-.292-.105-.441s-.061-.237-.1-.354a.5.5,0,0,0-.047-.155c-.018-.05-.05-.17-.076-.254l-.053-.164c-.023-.073-.047-.146-.073-.219-.044-.132-.091-.26-.137-.392s-.1-.26-.146-.389c-.1-.263-.208-.523-.316-.784-.424-1.012-.9-2.008-1.339-3a16.562,16.562,0,0,1-.626-1.587l-.056.079a3.373,3.373,0,0,0-.237.421c0,2.3-2.3,5.116-2.3,5.116l-2.318-3.377-2.029,3.12a2.548,2.548,0,0,0-.813,1.444c-.064.2-.126.427-.184.664-.041.158-.079.324-.114.491-.02.085-.038.17-.056.257l-.053.266v.041c-.035.181-.07.368-.1.558s-.07.409-.1.617q-.035.2-.061.4c-.041.26-.076.523-.111.783-.02.152-.041.292-.058.453l-.07.585c.149.479.316.953.488,1.418a2.356,2.356,0,0,1,.19.8,19.976,19.976,0,0,0,10.978,0,.115.115,0,0,1,0-.029,3.482,3.482,0,0,1-.07-.8h0a21.926,21.926,0,0,1,.292-2.237,8.176,8.176,0,0,0,.056-1.1v-.132C336.555,702.733,336.552,702.628,336.549,702.522Zm3.1-5.487-1.044-4.166-.178-.713-.05-.2h0l-.254-1.017a.189.189,0,0,0,0-.026h0a.235.235,0,0,0-.02-.132c-.038-.076-.134-.155-.36-.175a1.809,1.809,0,0,0-.257,0h0a4.451,4.451,0,0,0-.751.14c-.12.032-.249.067-.386.111l-.251.079h-.023a5.578,5.578,0,0,0-1.842,1.023,4.971,4.971,0,0,0-.936,1.035l-.056.079a3.375,3.375,0,0,0-.237.421c0,2.3-2.3,5.116-2.3,5.116l-2.318-3.377-.132-.19-.023-.032-.336-.494-.254-.339-.067-.088-1.2-1.6h0l-.38-.517v-.018l-.132-.178-.251-.333-.877.512-2.193,1.278-1.012,6.581v.07l.029.479.216,3.663v.208l-.33,1.318a19.273,19.273,0,0,0,2.748,1.216l.249.088c.292.1.567.184.854.269a1.027,1.027,0,0,1,.023.132v-.126a19.976,19.976,0,0,0,10.978,0l.067-.02c.167-.047.336-.1.5-.152l.266-.085a19.594,19.594,0,0,0,2.117-.848h0l.243-5.227.175-3.733ZM325.27,707.13a1.043,1.043,0,0,1,.023.132v-.126Zm11.279-4.607a2.02,2.02,0,0,0-.02-.351c-.02-.117-.018-.219-.032-.33s-.026-.222-.041-.333-.035-.222-.056-.333-.041-.222-.064-.333a.5.5,0,0,0-.023-.111c-.032-.146-.067-.292-.105-.441s-.061-.237-.1-.354a.5.5,0,0,0-.047-.155c-.018-.05-.05-.17-.076-.254l-.053-.164c-.023-.073-.047-.146-.073-.219-.044-.132-.091-.26-.137-.392s-.1-.26-.146-.389c-.1-.263-.208-.523-.316-.784-.424-1.012-.9-2.008-1.339-3a16.562,16.562,0,0,1-.626-1.587l-.056.079a3.373,3.373,0,0,0-.237.421c0,2.3-2.3,5.116-2.3,5.116l-2.318-3.377-2.029,3.12a2.548,2.548,0,0,0-.813,1.444c-.064.2-.126.427-.184.664-.041.158-.079.324-.114.491-.02.085-.038.17-.056.257l-.053.266v.041c-.035.181-.07.368-.1.558s-.07.409-.1.617q-.035.2-.061.4c-.041.26-.076.523-.111.783-.02.152-.041.292-.058.453l-.07.585c.149.479.316.953.488,1.418a2.356,2.356,0,0,1,.19.8,19.976,19.976,0,0,0,10.978,0,.115.115,0,0,1,0-.029,3.482,3.482,0,0,1-.07-.8h0a21.926,21.926,0,0,1,.292-2.237,8.176,8.176,0,0,0,.056-1.1v-.132C336.555,702.733,336.552,702.628,336.549,702.522Zm0,0a2.02,2.02,0,0,0-.02-.351c-.02-.117-.018-.219-.032-.33s-.026-.222-.041-.333-.035-.222-.056-.333-.041-.222-.064-.333a.5.5,0,0,0-.023-.111c-.032-.146-.067-.292-.105-.441s-.061-.237-.1-.354a.5.5,0,0,0-.047-.155c-.018-.05-.05-.17-.076-.254l-.053-.164c-.023-.073-.047-.146-.073-.219-.044-.132-.091-.26-.137-.392s-.1-.26-.146-.389c-.1-.263-.208-.523-.316-.784-.424-1.012-.9-2.008-1.339-3a16.562,16.562,0,0,1-.626-1.587l-.056.079a3.373,3.373,0,0,0-.237.421c0,2.3-2.3,5.116-2.3,5.116l-2.318-3.377-2.029,3.12a2.548,2.548,0,0,0-.813,1.444c-.064.2-.126.427-.184.664-.041.158-.079.324-.114.491-.02.085-.038.17-.056.257l-.053.266v.041c-.035.181-.07.368-.1.558s-.07.409-.1.617q-.035.2-.061.4c-.041.26-.076.523-.111.783-.02.152-.041.292-.058.453l-.07.585c.149.479.316.953.488,1.418a2.356,2.356,0,0,1,.19.8,19.976,19.976,0,0,0,10.978,0,.115.115,0,0,1,0-.029,3.482,3.482,0,0,1-.07-.8h0a21.926,21.926,0,0,1,.292-2.237,8.176,8.176,0,0,0,.056-1.1v-.132C336.555,702.733,336.552,702.628,336.549,702.522Zm0,0a2.02,2.02,0,0,0-.02-.351c-.02-.117-.018-.219-.032-.33s-.026-.222-.041-.333-.035-.222-.056-.333-.041-.222-.064-.333a.5.5,0,0,0-.023-.111c-.032-.146-.067-.292-.105-.441s-.061-.237-.1-.354a.5.5,0,0,0-.047-.155c-.018-.05-.05-.17-.076-.254l-.053-.164c-.023-.073-.047-.146-.073-.219-.044-.132-.091-.26-.137-.392s-.1-.26-.146-.389c-.1-.263-.208-.523-.316-.784-.424-1.012-.9-2.008-1.339-3a16.562,16.562,0,0,1-.626-1.587l-.056.079a3.373,3.373,0,0,0-.237.421c0,2.3-2.3,5.116-2.3,5.116l-2.318-3.377-2.029,3.12a2.548,2.548,0,0,0-.813,1.444c-.064.2-.126.427-.184.664-.041.158-.079.324-.114.491-.02.085-.038.17-.056.257l-.053.266v.041c-.035.181-.07.368-.1.558s-.07.409-.1.617q-.035.2-.061.4c-.041.26-.076.523-.111.783-.02.152-.041.292-.058.453l-.07.585c.149.479.316.953.488,1.418a2.356,2.356,0,0,1,.19.8,19.976,19.976,0,0,0,10.978,0,.115.115,0,0,1,0-.029,3.482,3.482,0,0,1-.07-.8h0a21.926,21.926,0,0,1,.292-2.237,8.176,8.176,0,0,0,.056-1.1v-.132C336.555,702.733,336.552,702.628,336.549,702.522Zm0,0a2.02,2.02,0,0,0-.02-.351c-.02-.117-.018-.219-.032-.33s-.026-.222-.041-.333-.035-.222-.056-.333-.041-.222-.064-.333a.5.5,0,0,0-.023-.111c-.032-.146-.067-.292-.105-.441s-.061-.237-.1-.354a.5.5,0,0,0-.047-.155c-.018-.05-.05-.17-.076-.254l-.053-.164c-.023-.073-.047-.146-.073-.219-.044-.132-.091-.26-.137-.392s-.1-.26-.146-.389c-.1-.263-.208-.523-.316-.784-.424-1.012-.9-2.008-1.339-3a16.562,16.562,0,0,1-.626-1.587l-.056.079a3.373,3.373,0,0,0-.237.421c0,2.3-2.3,5.116-2.3,5.116l-2.318-3.377-2.029,3.12a2.548,2.548,0,0,0-.813,1.444c-.064.2-.126.427-.184.664-.041.158-.079.324-.114.491-.02.085-.038.17-.056.257l-.053.266v.041c-.035.181-.07.368-.1.558s-.07.409-.1.617q-.035.2-.061.4c-.041.26-.076.523-.111.783-.02.152-.041.292-.058.453l-.07.585c.149.479.316.953.488,1.418a2.356,2.356,0,0,1,.19.8,19.976,19.976,0,0,0,10.978,0,.115.115,0,0,1,0-.029,3.482,3.482,0,0,1-.07-.8h0a21.926,21.926,0,0,1,.292-2.237,8.176,8.176,0,0,0,.056-1.1v-.132C336.555,702.733,336.552,702.628,336.549,702.522Zm0,0a2.02,2.02,0,0,0-.02-.351c-.02-.117-.018-.219-.032-.33s-.026-.222-.041-.333-.035-.222-.056-.333-.041-.222-.064-.333a.5.5,0,0,0-.023-.111c-.032-.146-.067-.292-.105-.441s-.061-.237-.1-.354a.5.5,0,0,0-.047-.155c-.018-.05-.05-.17-.076-.254l-.053-.164c-.023-.073-.047-.146-.073-.219-.044-.132-.091-.26-.137-.392s-.1-.26-.146-.389c-.1-.263-.208-.523-.316-.784-.424-1.012-.9-2.008-1.339-3a16.562,16.562,0,0,1-.626-1.587l-.056.079a3.373,3.373,0,0,0-.237.421c0,2.3-2.3,5.116-2.3,5.116l-2.318-3.377-2.029,3.12a2.548,2.548,0,0,0-.813,1.444c-.064.2-.126.427-.184.664-.041.158-.079.324-.114.491-.02.085-.038.17-.056.257l-.053.266v.041c-.035.181-.07.368-.1.558s-.07.409-.1.617q-.035.2-.061.4c-.041.26-.076.523-.111.783-.02.152-.041.292-.058.453l-.07.585c.149.479.316.953.488,1.418a2.356,2.356,0,0,1,.19.8,19.976,19.976,0,0,0,10.978,0,.115.115,0,0,1,0-.029,3.482,3.482,0,0,1-.07-.8h0a21.926,21.926,0,0,1,.292-2.237,8.176,8.176,0,0,0,.056-1.1v-.132C336.555,702.733,336.552,702.628,336.549,702.522Zm0,0a2.02,2.02,0,0,0-.02-.351c-.02-.117-.018-.219-.032-.33s-.026-.222-.041-.333-.035-.222-.056-.333-.041-.222-.064-.333a.5.5,0,0,0-.023-.111c-.032-.146-.067-.292-.105-.441s-.061-.237-.1-.354a.5.5,0,0,0-.047-.155c-.018-.05-.05-.17-.076-.254l-.053-.164c-.023-.073-.047-.146-.073-.219-.044-.132-.091-.26-.137-.392s-.1-.26-.146-.389c-.1-.263-.208-.523-.316-.784-.424-1.012-.9-2.008-1.339-3a16.562,16.562,0,0,1-.626-1.587l-.056.079a3.373,3.373,0,0,0-.237.421c0,2.3-2.3,5.116-2.3,5.116l-2.318-3.377-2.029,3.12a2.548,2.548,0,0,0-.813,1.444c-.064.2-.126.427-.184.664-.041.158-.079.324-.114.491-.02.085-.038.17-.056.257l-.053.266v.041c-.035.181-.07.368-.1.558s-.07.409-.1.617q-.035.2-.061.4c-.041.26-.076.523-.111.783-.02.152-.041.292-.058.453l-.07.585c.149.479.316.953.488,1.418a2.356,2.356,0,0,1,.19.8,19.976,19.976,0,0,0,10.978,0,.115.115,0,0,1,0-.029,3.482,3.482,0,0,1-.07-.8h0a21.926,21.926,0,0,1,.292-2.237,8.176,8.176,0,0,0,.056-1.1v-.132C336.555,702.733,336.552,702.628,336.549,702.522Zm0,0a2.02,2.02,0,0,0-.02-.351c-.02-.117-.018-.219-.032-.33s-.026-.222-.041-.333-.035-.222-.056-.333-.041-.222-.064-.333a.5.5,0,0,0-.023-.111c-.032-.146-.067-.292-.105-.441s-.061-.237-.1-.354a.5.5,0,0,0-.047-.155c-.018-.05-.05-.17-.076-.254l-.053-.164c-.023-.073-.047-.146-.073-.219-.044-.132-.091-.26-.137-.392s-.1-.26-.146-.389c-.1-.263-.208-.523-.316-.784-.424-1.012-.9-2.008-1.339-3a16.562,16.562,0,0,1-.626-1.587l-.056.079a3.373,3.373,0,0,0-.237.421c0,2.3-2.3,5.116-2.3,5.116l-2.318-3.377-2.029,3.12a2.548,2.548,0,0,0-.813,1.444c-.064.2-.126.427-.184.664-.041.158-.079.324-.114.491-.02.085-.038.17-.056.257l-.053.266v.041c-.035.181-.07.368-.1.558s-.07.409-.1.617q-.035.2-.061.4c-.041.26-.076.523-.111.783-.02.152-.041.292-.058.453l-.07.585c.149.479.316.953.488,1.418a2.356,2.356,0,0,1,.19.8,19.976,19.976,0,0,0,10.978,0,.115.115,0,0,1,0-.029,3.482,3.482,0,0,1-.07-.8h0a21.926,21.926,0,0,1,.292-2.237,8.176,8.176,0,0,0,.056-1.1v-.132C336.555,702.733,336.552,702.628,336.549,702.522Zm0,0a2.02,2.02,0,0,0-.02-.351c-.02-.117-.018-.219-.032-.33s-.026-.222-.041-.333-.035-.222-.056-.333-.041-.222-.064-.333a.5.5,0,0,0-.023-.111c-.032-.146-.067-.292-.105-.441s-.061-.237-.1-.354a.5.5,0,0,0-.047-.155c-.018-.05-.05-.17-.076-.254l-.053-.164c-.023-.073-.047-.146-.073-.219-.044-.132-.091-.26-.137-.392s-.1-.26-.146-.389c-.1-.263-.208-.523-.316-.784-.424-1.012-.9-2.008-1.339-3a16.562,16.562,0,0,1-.626-1.587l-.056.079a3.373,3.373,0,0,0-.237.421c0,2.3-2.3,5.116-2.3,5.116l-2.318-3.377-2.029,3.12a2.548,2.548,0,0,0-.813,1.444c-.064.2-.126.427-.184.664-.041.158-.079.324-.114.491-.02.085-.038.17-.056.257l-.053.266v.041c-.035.181-.07.368-.1.558s-.07.409-.1.617q-.035.2-.061.4c-.041.26-.076.523-.111.783-.02.152-.041.292-.058.453l-.07.585c.149.479.316.953.488,1.418a2.356,2.356,0,0,1,.19.8,19.976,19.976,0,0,0,10.978,0,.115.115,0,0,1,0-.029,3.482,3.482,0,0,1-.07-.8h0a21.926,21.926,0,0,1,.292-2.237,8.176,8.176,0,0,0,.056-1.1v-.132C336.555,702.733,336.552,702.628,336.549,702.522Z" transform="translate(-310.927 -668.15)" fill="#444176"/><path d="M314.47,695.219l-.2-.026a7.122,7.122,0,0,1-.877-.175l-.108-.029c-.713-.2-1.494-.564-1.669-1.2a1.138,1.138,0,0,1,.018-.623,5.341,5.341,0,0,1,.4-1.006v-.017a1.4,1.4,0,0,1,.073-.132,2.923,2.923,0,0,1,1.055-1.149l-.351.056-2.97.482-4.6.743s-.819-.164-1.932,2.906a.475.475,0,0,1-.038.114c-.269.751-.553,1.69-.845,2.862-.2.813-.386,1.611-.555,2.386-.05.234-.1.465-.146.693a18.582,18.582,0,0,0,1.7,1.754l.1.091a19.953,19.953,0,0,0,3.894,2.757l.056.029a19.3,19.3,0,0,0,2.748,1.216l.249.088c.053-.541.111-1.14.181-1.754a.5.5,0,0,1,.023-.184l.07-.585c.018-.149.038-.292.058-.453.035-.26.07-.523.111-.783q.026-.2.061-.4c.032-.208.067-.415.1-.617s.067-.377.1-.558v-.041l.053-.266c.018-.088.035-.172.056-.257.035-.167.073-.333.114-.491.058-.237.12-.459.184-.664a2.5,2.5,0,0,1,.813-1.444l2.029-3.12.085-.132.038-.058Z" transform="translate(-296.972 -668.331)" opacity="0.1"/><path d="M313.8,695.239l-2.155,3.31a2.472,2.472,0,0,0-.8,1.4c-.067.216-.134.453-.2.7a34.956,34.956,0,0,0-.661,3.827.455.455,0,0,1-.023.175c-.1.813-.181,1.611-.249,2.315a19.278,19.278,0,0,1-2.748-1.216l-.056-.029a19.951,19.951,0,0,1-3.894-2.757l-.1-.091a18.579,18.579,0,0,1-1.7-1.754c-.07-.079-.137-.161-.2-.243.032-.152.064-.292.1-.456.167-.775.351-1.57.553-2.38a28.812,28.812,0,0,1,.994-3.274.9.9,0,0,1,.038-.094c1.035-2.663,1.78-2.514,1.78-2.514l4.862-.784,3.07-.5-.1.056a3.114,3.114,0,0,0-.845.9l-.085.143c-.035.056-.067.117-.1.178a5.182,5.182,0,0,0-.4,1.023,1.076,1.076,0,0,0,.07.836,2.784,2.784,0,0,0,1.8,1.047l.114.029A7.347,7.347,0,0,0,313.8,695.239Z" transform="translate(-296.477 -668.345)" fill="#f1d2d7"/><path d="M380.579,699.343l-.12-2.6c.512-4.093-.512-4.347-.512-4.347l-1.216-.585H378.7l-4.891-2.371-.19-.094-.058-.026h0l-.637-.31h0l-.4-.2-.754-.365-.254-.123v1.014c0,.292.026.634.05,1.032.053,1,.149,2.339.322,3.918.1.915.219,1.915.371,2.988.091.634.155,1.266.2,1.883a33.132,33.132,0,0,1-.193,6.227l.266-.085a19.557,19.557,0,0,0,2.117-.848h0a19.429,19.429,0,0,0,3.771-2.315l.053-.038a19.5,19.5,0,0,0,2.122-1.927Z" transform="translate(-346.359 -666.54)" opacity="0.1"/><path d="M381.445,699.308l-.12-2.6c.512-4.093-.512-4.347-.512-4.347l-1.462-.707h-.029l-4.906-2.38-.225-.108-.044-.02-.36-.175-.477-.231-.941-.456v.415h0v.515c0,.292.026.675.053,1.111.05.933.137,2.155.292,3.608.105,1,.237,2.1.409,3.3q.134.956.193,1.892a33.091,33.091,0,0,1-.181,6.139,19.8,19.8,0,0,0,5.888-3.163l.053-.038a19.512,19.512,0,0,0,2.122-1.927q.129-.129.246-.263Z" transform="translate(-346.967 -666.505)" fill="#f1d2d7"/><path d="M334.7,639.635a7.314,7.314,0,0,1,2.736-.292,8.961,8.961,0,0,1,2.09,1.014,5.413,5.413,0,0,0,2.158.57,1.27,1.27,0,0,0,.792-.155,1.228,1.228,0,0,0,.354-1.2,6.916,6.916,0,0,0-1.754-3.286,6.438,6.438,0,0,0-1.1-1.114,5.807,5.807,0,0,0-3.739-.848,9.369,9.369,0,0,0-4.283,1.1c-.877.5-2.888,2.087-2.19,3.233C330.5,639.852,333.556,639.831,334.7,639.635Z" transform="translate(-316.719 -628.312)" opacity="0.1"/><path d="M334.7,638.635a7.313,7.313,0,0,1,2.736-.292,8.96,8.96,0,0,1,2.09,1.014,5.412,5.412,0,0,0,2.158.57,1.269,1.269,0,0,0,.792-.155,1.228,1.228,0,0,0,.354-1.2,6.916,6.916,0,0,0-1.754-3.286,6.437,6.437,0,0,0-1.1-1.114,5.806,5.806,0,0,0-3.739-.848,9.367,9.367,0,0,0-4.283,1.1c-.877.5-2.888,2.087-2.19,3.233C330.5,638.852,333.556,638.831,334.7,638.635Z" transform="translate(-316.719 -627.604)" fill="#444176"/></g><path d="M733.146,522.743s-6.753.465-8.616-.933a17.834,17.834,0,0,0,8.405,3.494Z" transform="translate(-417.615 -355.802)" opacity="0.1"/><path d="M315.354,155.336l-35.615-29.257a4.993,4.993,0,0,0-3.537-1.462h-3.391a43.268,43.268,0,1,0-7.493,7.493V135.5a4.994,4.994,0,0,0,1.462,3.537l35.615,29.257a4.97,4.97,0,0,0,7.057,0l5.882-5.876A5.02,5.02,0,0,0,315.354,155.336Zm-76.682-30.719a11.037,11.037,0,1,1,0,.006Z" transform="translate(-43.2 -25.275)" fill="url(#e)"/><path d="M316.655,153.976l-34.916-29.9a4.994,4.994,0,0,0-3.537-1.462h-3.391a43.268,43.268,0,1,0-7.493,7.493V133.5a4.993,4.993,0,0,0,1.462,3.537l34.916,29.9a4.97,4.97,0,0,0,7.057,0l5.882-5.876a5.02,5.02,0,0,0,.02-7.081Zm-75.983-31.359a11.037,11.037,0,1,1,0,.006Z" transform="translate(-44.615 -23.86)" fill="#8496b0"/><path d="M280.78,151.69a19.787,19.787,0,0,0,3.97,11.922c.26.348.532.684.816,1.014.152.178.31.354.471.526q.12.135.246.263a19.5,19.5,0,0,0,2.122,1.927l.053.038a19.8,19.8,0,0,0,5.888,3.163l.266.085c.164.056.333.105.5.152l.067.02c.085.023.17.05.257.07a19.8,19.8,0,0,0,5.213.693c.292,0,.6,0,.9-.02a19.659,19.659,0,0,0,4.61-.754h.029c.278-.082.553-.167.824-.26h.029l.249-.088a19.271,19.271,0,0,0,2.748-1.216l.056-.029.292-.161a19.832,19.832,0,0,0,3.608-2.6l.1-.091a18.582,18.582,0,0,0,1.7-1.754l.061-.073c.05-.056.1-.111.143-.17.129-.152.251-.31.374-.468A19.88,19.88,0,1,0,280.78,151.69Z" transform="translate(-103.597 -79.823)" fill="#c0bccf"/><path d="M297.311,168.823s4.312-.365,6.289-3.108c1.927-2.669,3.236-2.7,3.3-2.7h0c.05-.357.085-.7.108-1.012v-.044a.585.585,0,0,1-.272.12c-.386.058-.725-.307-.918-.7a5.426,5.426,0,0,0-.585-1.152c-.477-.55-1.257-.553-1.824-.971a2.508,2.508,0,0,1-.877-1.672,4.607,4.607,0,0,1-.035-.731,8.093,8.093,0,0,1,.123-1.558,6.419,6.419,0,0,1,.918-2.722c.541-.763,1.6-.927,2.125-1.649,2.465-3.38,4.222-2.307,6.341-3.441a3.4,3.4,0,0,1,1.357-.494,3.547,3.547,0,0,1,2.295,1.137,6.551,6.551,0,0,1,1.169,1.169,6.345,6.345,0,0,1,.924,3.549,5.315,5.315,0,0,1-.134,1.389c-.17.672-.629.629-1.131.477a6.075,6.075,0,0,1-2.064,7.625v.307a.526.526,0,0,0,0,.067,13.823,13.823,0,0,0,.047,1.4c.05.026,4.777,2.707,5.312,3.979a5.774,5.774,0,0,0,2.517,2.193s2.178,1.169,3.216,4.841l-.061.073a18.744,18.744,0,0,1-1.7,1.789l-.1.094a19.844,19.844,0,0,1-3.608,2.631c-.094.056-.19.111-.292.164l-.056.029a19.117,19.117,0,0,1-2.748,1.237l-.249.091h-.029c-.272.1-.547.181-.824.263h-.029a19.36,19.36,0,0,1-4.61.766c-.292.015-.585.02-.9.02a19.486,19.486,0,0,1-5.2-.675c-.088-.02-.172-.047-.257-.07l-.067-.02c-.167-.047-.336-.1-.5-.155l-.266-.085a19.711,19.711,0,0,1-5.9-3.219l-.053-.038a19.624,19.624,0,0,1-2.122-1.959q-.126-.129-.246-.269c-.161-.175-.319-.354-.471-.535-.292-.336-.556-.678-.816-1.032C295.984,168.221,297.311,168.823,297.311,168.823Z" transform="translate(-113.25 -90.562)" fill="url(#f)"/><path d="M337.457,197.144l6.289-4.85s-4.213.9-4.093-5.83a.526.526,0,0,1,0-.067,17.22,17.22,0,0,1,.146-2.008c1.079-8.984-7.546-1.079-7.546-1.079a12.871,12.871,0,0,1,0,2.391v.064a16.706,16.706,0,0,1-1.8,6.347C328.116,196.6,337.457,197.144,337.457,197.144Z" transform="translate(-138.485 -113.989)" fill="#fdc2cc"/><path d="M338.3,184.453c1.067,1.038,1.719,2.924,3.324,2.924a5.891,5.891,0,0,0,3.266-.979,17.22,17.22,0,0,1,.146-2.008c1.079-8.984-7.546-1.079-7.546-1.079S338.414,182.991,338.3,184.453Z" transform="translate(-143.728 -113.989)" opacity="0.1"/><circle cx="5.929" cy="5.929" r="5.929" transform="translate(191.967 61.237)" fill="#fdc2cc"/><path d="M336.391,152.265a6.506,6.506,0,0,0-1.169-1.146A3.546,3.546,0,0,0,332.926,150a3.435,3.435,0,0,0-1.357.485c-2.12,1.117-3.877.061-6.341,3.383-.526.71-1.582.877-2.125,1.623a6.22,6.22,0,0,0-.918,2.678,6.567,6.567,0,0,0-.091,1.959,2.453,2.453,0,0,0,.877,1.643c.567.412,1.348.415,1.824.956a5.306,5.306,0,0,1,.585,1.131c.193.38.532.74.918.684a.946.946,0,0,0,.672-.877,5.394,5.394,0,0,0-.073-1.248,2.986,2.986,0,0,1,.456-2.1c.292-.383.731-.611,1.02-1,.7-.938.38-2.514,1.143-3.385a1.81,1.81,0,0,1,1.754-.488,7.474,7.474,0,0,1,1.754.754,13.015,13.015,0,0,0,2.4.927c.7.19,1.5.646,1.74-.292A6.179,6.179,0,0,0,336.391,152.265Z" transform="translate(-132.809 -92.692)" opacity="0.1"/><path d="M336.391,151.265a6.506,6.506,0,0,0-1.169-1.146A3.546,3.546,0,0,0,332.926,149a3.435,3.435,0,0,0-1.357.485c-2.12,1.117-3.877.061-6.341,3.383-.526.71-1.582.877-2.125,1.623a6.22,6.22,0,0,0-.918,2.678,6.567,6.567,0,0,0-.091,1.959,2.453,2.453,0,0,0,.877,1.643c.567.412,1.348.415,1.824.956a5.306,5.306,0,0,1,.585,1.131c.193.38.532.74.918.684a.946.946,0,0,0,.672-.877,5.394,5.394,0,0,0-.073-1.248,2.986,2.986,0,0,1,.456-2.1c.292-.383.731-.611,1.02-1,.7-.938.38-2.514,1.143-3.385a1.81,1.81,0,0,1,1.754-.488,7.475,7.475,0,0,1,1.754.754,13.014,13.014,0,0,0,2.4.927c.7.19,1.5.646,1.74-.292A6.179,6.179,0,0,0,336.391,151.265Z" transform="translate(-132.809 -91.984)" fill="#865a61"/><path d="M327.458,221.255l-.117,4.488a19.8,19.8,0,0,0,5.213.693c.292,0,.6,0,.9-.02a19.659,19.659,0,0,0,4.61-.754h.029c.278-.082.553-.167.824-.26h.029l.249-.088a19.269,19.269,0,0,0,2.748-1.216l.056-.029.292-.161-.453-6.049.722-4.148-3.953-2.693a6.961,6.961,0,0,1-.743.9,4.97,4.97,0,0,1-1.351,1c-2.836,1.4-6.063-.824-7.668-2.2l-.365-.325c-.415-.377-.652-.634-.652-.634l-1.976,3.052Z" transform="translate(-135.491 -134.981)" opacity="0.1"/><path d="M327.458,222.255l-.117,4.488a19.8,19.8,0,0,0,5.213.693c.292,0,.6,0,.9-.02a19.658,19.658,0,0,0,4.61-.754h.029c.278-.082.553-.167.824-.26h.029l.249-.088a19.271,19.271,0,0,0,2.748-1.216l.056-.029.292-.161-.453-6.049.722-4.149-3.953-2.693a6.963,6.963,0,0,1-.743.9,4.97,4.97,0,0,1-1.351,1c-2.836,1.4-6.063-.824-7.668-2.2l-.365-.325c-.415-.377-.652-.634-.652-.634l-1.976,3.052Z" transform="translate(-135.491 -135.689)" fill="#53526b"/><path d="M294.36,213.895c.26.348.532.684.816,1.014.152.178.31.354.471.526q.12.134.246.263a19.506,19.506,0,0,0,2.122,1.927l.053.038a19.8,19.8,0,0,0,5.888,3.163l.266.085c.164.056.333.105.5.152l.067.02c.085.023.17.05.257.07a19.8,19.8,0,0,0,5.213.693c.292,0,.6,0,.9-.02.228-3.73.292-6.724-.064-7.493a12.06,12.06,0,0,0-.722-1.292c-1.444-2.321-4.093-5.812-3.95-6.253a4.577,4.577,0,0,0,.12-.658c.155-1.152.31-3.26.31-3.26h0c-.064,0-1.374.032-3.3,2.658-1.976,2.7-6.289,3.055-6.289,3.055S295.942,208,294.36,213.895Z" transform="translate(-113.207 -130.106)" fill="#555388"/><path d="M363.126,219.692s.216,1.722.5,3.78h.029l.249-.088a19.274,19.274,0,0,0,2.748-1.216l.056-.029.292-.161a19.829,19.829,0,0,0,3.608-2.6l.1-.091a18.571,18.571,0,0,0,1.7-1.754l.061-.073c-1.044-3.622-3.216-4.762-3.216-4.762a5.743,5.743,0,0,1-2.517-2.158c-.541-1.257-5.315-3.915-5.315-3.915v.02c0,.225-.076,2.286-.19,4.359-.073,1.348-.164,2.7-.269,3.561a4.163,4.163,0,0,1-.152.824C360.434,216.281,363.126,219.692,363.126,219.692Z" transform="translate(-160.202 -132.766)" fill="#555388"/></g><g transform="translate(583.804 264.677) rotate(-17)" opacity="0.47"><path d="M635.372,380.118H525.309a2.04,2.04,0,0,1-2.038-2.038V327.95a2.041,2.041,0,0,1,2.038-2.038H635.372a2.041,2.041,0,0,1,2.038,2.038v50.13A2.041,2.041,0,0,1,635.372,380.118Z" transform="translate(-194.729 -259.467)" fill="#fff"/><path d="M635.372,380.118H525.309a2.04,2.04,0,0,1-2.038-2.038V327.95a2.041,2.041,0,0,1,2.038-2.038H635.372a2.041,2.041,0,0,1,2.038,2.038v50.13A2.041,2.041,0,0,1,635.372,380.118ZM525.309,326.727a1.224,1.224,0,0,0-1.223,1.223v50.13a1.224,1.224,0,0,0,1.223,1.223H635.372a1.224,1.224,0,0,0,1.223-1.223V327.95a1.224,1.224,0,0,0-1.223-1.223Z" transform="translate(-194.729 -259.467)" fill="#8496b0"/><circle cx="8.56" cy="8.56" r="8.56" transform="translate(336.287 73.574)" fill="#8496b0"/><path d="M609.7,350.4a1.427,1.427,0,0,0,0,2.853h67.26a1.427,1.427,0,0,0,0-2.853Z" transform="translate(-245.08 -273.973)" fill="#e6e6e6"/><path d="M609.7,371.4a1.427,1.427,0,0,0,0,2.853H638.64a1.427,1.427,0,1,0,0-2.853Z" transform="translate(-245.08 -286.412)" fill="#e6e6e6"/><path d="M544.3,404.973c-1.085,0-1.969.64-1.969,1.427s.883,1.427,1.969,1.427h92.8c1.085,0,1.968-.64,1.968-1.427s-.883-1.427-1.968-1.427Z" transform="translate(-206.021 -306.3)" fill="#e6e6e6"/><path d="M544.3,425.973c-1.085,0-1.969.64-1.969,1.427s.883,1.427,1.969,1.427h92.8c1.085,0,1.968-.64,1.968-1.427s-.883-1.427-1.968-1.427Z" transform="translate(-206.021 -318.739)" fill="#e6e6e6"/><path d="M837.371,217.118H727.309a2.041,2.041,0,0,1-2.038-2.038V164.95a2.04,2.04,0,0,1,2.038-2.038H837.372a2.041,2.041,0,0,1,2.038,2.038v50.13A2.041,2.041,0,0,1,837.371,217.118Z" transform="translate(-314.386 -162.912)" fill="#fff"/><path d="M837.371,217.118H727.309a2.041,2.041,0,0,1-2.038-2.038V164.95a2.04,2.04,0,0,1,2.038-2.038H837.372a2.041,2.041,0,0,1,2.038,2.038v50.13A2.041,2.041,0,0,1,837.371,217.118ZM727.309,163.727a1.224,1.224,0,0,0-1.223,1.223v50.13a1.224,1.224,0,0,0,1.223,1.223H837.372a1.224,1.224,0,0,0,1.223-1.223V164.95a1.224,1.224,0,0,0-1.223-1.223Z" transform="translate(-314.386 -162.912)" fill="#8496b0"/><circle cx="8.56" cy="8.56" r="8.56" transform="translate(418.63 7.128)" fill="#8496b0"/><path d="M811.7,187.4a1.427,1.427,0,1,0,0,2.853h67.26a1.427,1.427,0,1,0,0-2.853Z" transform="translate(-364.737 -177.418)" fill="#e6e6e6"/><path d="M811.7,208.4a1.427,1.427,0,1,0,0,2.853H840.64a1.427,1.427,0,0,0,0-2.853Z" transform="translate(-364.737 -189.857)" fill="#e6e6e6"/><path d="M746.3,241.973c-1.085,0-1.968.64-1.968,1.427s.883,1.427,1.968,1.427h92.8c1.085,0,1.968-.64,1.968-1.427s-.883-1.427-1.968-1.427Z" transform="translate(-325.678 -209.745)" fill="#e6e6e6"/><path d="M746.3,262.973c-1.085,0-1.968.64-1.968,1.427s.883,1.427,1.968,1.427h92.8c1.085,0,1.968-.64,1.968-1.427s-.883-1.427-1.968-1.427Z" transform="translate(-325.678 -222.184)" fill="#e6e6e6"/><path d="M837.371,543.118H727.309a2.041,2.041,0,0,1-2.038-2.038V490.95a2.04,2.04,0,0,1,2.038-2.038H837.372a2.041,2.041,0,0,1,2.038,2.038v50.13A2.04,2.04,0,0,1,837.371,543.118Z" transform="translate(-314.386 -356.022)" fill="#fff"/><path d="M837.371,543.118H727.309a2.041,2.041,0,0,1-2.038-2.038V490.95a2.04,2.04,0,0,1,2.038-2.038H837.372a2.041,2.041,0,0,1,2.038,2.038v50.13A2.04,2.04,0,0,1,837.371,543.118ZM727.309,489.727a1.224,1.224,0,0,0-1.223,1.223v50.13a1.224,1.224,0,0,0,1.223,1.223H837.372a1.224,1.224,0,0,0,1.223-1.223V490.95a1.224,1.224,0,0,0-1.223-1.223Z" transform="translate(-314.386 -356.022)" fill="#8496b0"/><circle cx="8.56" cy="8.56" r="8.56" transform="translate(418.63 140.019)" fill="#8496b0"/><path d="M811.7,513.4a1.427,1.427,0,0,0,0,2.854h67.26a1.427,1.427,0,0,0,0-2.854Z" transform="translate(-364.737 -370.528)" fill="#e6e6e6"/><path d="M811.7,534.4a1.427,1.427,0,1,0,0,2.853H840.64a1.427,1.427,0,0,0,0-2.853Z" transform="translate(-364.737 -382.967)" fill="#e6e6e6"/><path d="M746.3,567.973c-1.085,0-1.968.64-1.968,1.427s.883,1.427,1.968,1.427h92.8c1.085,0,1.968-.64,1.968-1.427s-.883-1.427-1.968-1.427Z" transform="translate(-325.678 -402.855)" fill="#e6e6e6"/><path d="M746.3,588.973c-1.085,0-1.968.64-1.968,1.427s.883,1.427,1.968,1.427h92.8c1.085,0,1.968-.64,1.968-1.427s-.883-1.427-1.968-1.427Z" transform="translate(-325.678 -415.294)" fill="#e6e6e6"/></g></g></svg>