<svg xmlns="http://www.w3.org/2000/svg" xmlns:xlink="http://www.w3.org/1999/xlink" width="382" height="274" viewBox="0 0 382 274"><defs><clipPath id="a"><rect width="382" height="274" transform="translate(984 145)" fill="#fff" stroke="#707070" stroke-width="1"/></clipPath></defs><g transform="translate(-984 -145)" clip-path="url(#a)"><g transform="translate(1184.534 102.198)" opacity="0.5"><path d="M515.046,308.018,334.02,270.3V94.477L515.046,0Z" transform="translate(-333.58)" fill="#e6e6e6"/><path d="M514.144,19.093,333.118,105.737V95.546L514.144,1.227Z" transform="translate(-333.118 -0.629)" fill="#8496b0"/><path d="M593.772,286.819c0,2.345-.79,4.626-1.758,5.091s-1.733-1.04-1.733-3.352.773-4.584,1.733-5.079S593.772,284.474,593.772,286.819Z" transform="translate(-585.423 -190.581)" fill="#e6e6e6"/><path d="M608.2,279.73c0,2.28-.79,4.506-1.757,4.969s-1.734-.993-1.734-3.242.773-4.467,1.734-4.958S608.2,277.45,608.2,279.73Z" transform="translate(-592.823 -187.001)" fill="#e6e6e6"/><path d="M622.633,272.514c0,2.28-.79,4.506-1.758,4.969s-1.733-.993-1.733-3.242.773-4.467,1.733-4.958S622.633,270.235,622.633,272.514Z" transform="translate(-600.224 -183.301)" fill="#e6e6e6"/><path d="M491.659,232.523l-111.6,25.532V225.493l111.6-39.456Z" transform="translate(-357.189 -95.408)" opacity="0.2"/><path d="M487.113,227.977l-111.6,25.532V220.947l111.6-39.456Z" transform="translate(-354.858 -93.077)" fill="#fff"/><path d="M656,372.123c0,5.246-1.984,10.007-4.394,10.623-2.368.606-4.258-3.032-4.258-8.116s1.89-9.818,4.258-10.584C654.02,363.266,656,366.877,656,372.123Z" transform="translate(-614.692 -231.894)" opacity="0.2"/><path d="M653.277,369.4c0,5.246-1.984,10.007-4.394,10.623-2.368.606-4.258-3.032-4.258-8.116s1.89-9.818,4.258-10.584C651.293,360.539,653.277,364.149,653.277,369.4Z" transform="translate(-613.293 -230.495)" fill="#8496b0"/><path d="M493.152,240.106l-53.6,15.478v-5.479l53.6-16.483Z" transform="translate(-387.699 -119.812)" fill="#e6e6e6"/><path d="M491.025,272.516,459.389,280.5v-5.66l31.636-8.578Z" transform="translate(-397.875 -136.551)" fill="#e6e6e6"/><path d="M491.666,422.225l-111.6-9.355V347.53l111.6-18.632Z" transform="translate(-357.193 -168.673)" opacity="0.2"/><path d="M486.211,417.679l-111.6-9.355v-65.34l111.6-18.632Z" transform="translate(-354.395 -166.342)" fill="#fff"/><path d="M407,394.368l-5.223.487v-5.71l5.223-.6Z" transform="translate(-368.331 -199.265)" opacity="0.2"/><path d="M405.186,392.55l-5.223.487v-5.71l5.223-.6Z" transform="translate(-367.399 -198.333)" fill="#8496b0"/><path d="M483.9,378.631l-62.393,5.84v-5.314l62.393-7.009Z" transform="translate(-378.448 -190.853)" fill="#e6e6e6"/><path d="M483.9,422.089l-62.393,2.019v-5.313l62.393-3.189Z" transform="translate(-378.448 -213.14)" fill="#e6e6e6"/><path d="M483.9,465.881l-62.393-1.9V458.67l62.393.727Z" transform="translate(-378.448 -235.226)" fill="#e6e6e6"/></g><g transform="translate(988 266.435)" opacity="0.5"><path d="M614.5,370.028H524.93a1.661,1.661,0,0,1-1.659-1.659v-40.8a1.661,1.661,0,0,1,1.659-1.659H614.5a1.661,1.661,0,0,1,1.659,1.659v40.8A1.661,1.661,0,0,1,614.5,370.028Z" transform="translate(-523.271 -271.835)" fill="#fff"/><path d="M614.5,370.028H524.93a1.661,1.661,0,0,1-1.659-1.659v-40.8a1.661,1.661,0,0,1,1.659-1.659H614.5a1.661,1.661,0,0,1,1.659,1.659v40.8A1.661,1.661,0,0,1,614.5,370.028ZM524.93,326.576a1,1,0,0,0-1,1v40.8a1,1,0,0,0,1,1H614.5a1,1,0,0,0,1-1v-40.8a1,1,0,0,0-1-1Z" transform="translate(-523.271 -271.835)" fill="#8496b0"/><ellipse cx="6.967" cy="6.967" rx="6.967" ry="6.967" transform="translate(6.303 59.878)" fill="#8496b0"/><path d="M609.432,350.4a1.161,1.161,0,0,0,0,2.322h54.74a1.161,1.161,0,0,0,0-2.322Z" transform="translate(-580.072 -288.199)" fill="#e6e6e6"/><path d="M609.432,371.4a1.161,1.161,0,0,0,0,2.322h23.555a1.161,1.161,0,1,0,0-2.322Z" transform="translate(-580.072 -302.232)" fill="#e6e6e6"/><path d="M543.936,404.973c-.883,0-1.6.521-1.6,1.161s.719,1.161,1.6,1.161h75.524c.883,0,1.6-.521,1.6-1.161s-.719-1.161-1.6-1.161Z" transform="translate(-536.01 -324.667)" fill="#e6e6e6"/><path d="M543.936,425.973c-.883,0-1.6.521-1.6,1.161s.719,1.161,1.6,1.161h75.524c.883,0,1.6-.521,1.6-1.161s-.719-1.161-1.6-1.161Z" transform="translate(-536.01 -338.7)" fill="#e6e6e6"/><path d="M816.5,207.028H726.93a1.661,1.661,0,0,1-1.659-1.659v-40.8a1.661,1.661,0,0,1,1.659-1.659H816.5a1.661,1.661,0,0,1,1.659,1.659v40.8A1.661,1.661,0,0,1,816.5,207.028Z" transform="translate(-658.256 -162.912)" fill="#fff"/><path d="M816.5,207.028H726.93a1.661,1.661,0,0,1-1.659-1.659v-40.8a1.661,1.661,0,0,1,1.659-1.659H816.5a1.661,1.661,0,0,1,1.659,1.659v40.8A1.661,1.661,0,0,1,816.5,207.028ZM726.93,163.575a1,1,0,0,0-1,1v40.8a1,1,0,0,0,1,1H816.5a1,1,0,0,0,1-1v-40.8a1,1,0,0,0-1-1Z" transform="translate(-658.256 -162.912)" fill="#8496b0"/><ellipse cx="6.967" cy="6.967" rx="6.967" ry="6.967" transform="translate(73.318 5.802)" fill="#8496b0"/><path d="M811.432,187.4a1.161,1.161,0,1,0,0,2.322h54.74a1.161,1.161,0,1,0,0-2.322Z" transform="translate(-715.057 -179.276)" fill="#e6e6e6"/><path d="M811.432,208.4a1.161,1.161,0,1,0,0,2.322h23.555a1.161,1.161,0,0,0,0-2.322Z" transform="translate(-715.057 -193.309)" fill="#e6e6e6"/><path d="M745.936,241.973c-.883,0-1.6.521-1.6,1.161s.719,1.161,1.6,1.161h75.524c.883,0,1.6-.521,1.6-1.161s-.719-1.161-1.6-1.161Z" transform="translate(-670.995 -215.744)" fill="#e6e6e6"/><path d="M745.936,262.973c-.883,0-1.6.521-1.6,1.161s.719,1.161,1.6,1.161h75.524c.883,0,1.6-.521,1.6-1.161s-.719-1.161-1.6-1.161Z" transform="translate(-670.995 -229.777)" fill="#e6e6e6"/><path d="M816.5,533.028H726.93a1.661,1.661,0,0,1-1.659-1.659v-40.8a1.661,1.661,0,0,1,1.659-1.659H816.5a1.661,1.661,0,0,1,1.659,1.659v40.8A1.661,1.661,0,0,1,816.5,533.028Z" transform="translate(-658.256 -380.759)" fill="#fff"/><path d="M816.5,533.028H726.93a1.661,1.661,0,0,1-1.659-1.659v-40.8a1.661,1.661,0,0,1,1.659-1.659H816.5a1.661,1.661,0,0,1,1.659,1.659v40.8A1.661,1.661,0,0,1,816.5,533.028ZM726.93,489.575a1,1,0,0,0-1,1v40.8a1,1,0,0,0,1,1H816.5a1,1,0,0,0,1-1v-40.8a1,1,0,0,0-1-1Z" transform="translate(-658.256 -380.759)" fill="#8496b0"/><ellipse cx="6.967" cy="6.967" rx="6.967" ry="6.967" transform="translate(73.318 113.955)" fill="#8496b0"/><path d="M811.432,513.4a1.161,1.161,0,1,0,0,2.322h54.74a1.161,1.161,0,1,0,0-2.322Z" transform="translate(-715.057 -397.123)" fill="#e6e6e6"/><path d="M811.432,534.4a1.161,1.161,0,1,0,0,2.322h23.555a1.161,1.161,0,0,0,0-2.322Z" transform="translate(-715.057 -411.156)" fill="#e6e6e6"/><path d="M745.936,567.973c-.883,0-1.6.521-1.6,1.161s.719,1.161,1.6,1.161h75.524c.883,0,1.6-.521,1.6-1.161s-.719-1.161-1.6-1.161Z" transform="translate(-670.995 -433.591)" fill="#e6e6e6"/><path d="M745.936,588.973c-.883,0-1.6.521-1.6,1.161s.719,1.161,1.6,1.161h75.524c.883,0,1.6-.521,1.6-1.161s-.719-1.161-1.6-1.161Z" transform="translate(-670.995 -447.624)" fill="#e6e6e6"/></g></g></svg>