<svg xmlns="http://www.w3.org/2000/svg" width="125.141" height="108.11" viewBox="0 0 125.141 108.11"><g transform="translate(0 -34.571)"><g transform="translate(0 34.571)"><path d="M.027,112.891A29.868,29.868,0,1,0,20.168,84.731c6.7-38.448,36.686-63.243,8.893-42.836C-1.758,64.523-.006,111.981.028,112.851.028,112.864.027,112.876.027,112.891Z" transform="translate(0 -34.571)" fill="#35926e"/><path d="M266.087,112.891a29.868,29.868,0,1,0,20.141-28.161c6.7-38.448,36.686-63.243,8.893-42.836-30.819,22.628-29.067,70.087-29.032,70.956C266.089,112.864,266.087,112.876,266.087,112.891Z" transform="translate(-200.525 -34.571)" fill="#35926e"/></g></g></svg>