<svg xmlns="http://www.w3.org/2000/svg" xmlns:xlink="http://www.w3.org/1999/xlink" width="426" height="254" viewBox="0 0 426 254"><defs><clipPath id="a"><rect width="426" height="254" transform="translate(940 145)" fill="#fff" stroke="#707070" stroke-width="1"/></clipPath></defs><g transform="translate(-940 -145)" clip-path="url(#a)"><g transform="translate(968 111)" opacity="0.4"><path d="M647.54,278.335H562.917a9.232,9.232,0,0,1-9.222-9.222V200.222A9.232,9.232,0,0,1,562.917,191H647.54a9.232,9.232,0,0,1,9.222,9.222v68.892A9.232,9.232,0,0,1,647.54,278.335Zm-84.623-86.25a8.146,8.146,0,0,0-8.137,8.137v68.892a8.146,8.146,0,0,0,8.137,8.137H647.54a8.146,8.146,0,0,0,8.137-8.137V200.222a8.146,8.146,0,0,0-8.137-8.137Z" transform="translate(-399.761 -166.948)" fill="#3f3d56"/><path d="M671.668,226.731H628.96a1.481,1.481,0,0,1-1.506-1.35,1.427,1.427,0,0,1,1.425-1.5h43.474c1.432,1.258.559,2.854-.686,2.854Z" transform="translate(-433.509 -181.991)" fill="#ccc"/><path d="M671.668,240.541H628.96a1.481,1.481,0,0,1-1.506-1.35,1.427,1.427,0,0,1,1.425-1.5h43.474c1.432,1.258.559,2.854-.686,2.854Z" transform="translate(-433.509 -188.31)" fill="#ccc"/><path d="M600.864,235.13H587.83a1.607,1.607,0,0,1-1.605-1.605V218.143a1.607,1.607,0,0,1,1.605-1.605h13.034a1.607,1.607,0,0,1,1.605,1.605v15.381a1.607,1.607,0,0,1-1.605,1.605Z" transform="translate(-414.645 -178.633)" fill="#3f3d56"/><path d="M652.484,268.817H587.3a1.481,1.481,0,0,1-1.506-1.35,1.427,1.427,0,0,1,1.425-1.5h65.947c1.432,1.259.559,2.854-.686,2.854Z" transform="translate(-414.449 -201.247)" fill="#ccc"/><path d="M652.484,282.631H587.3a1.481,1.481,0,0,1-1.506-1.35,1.427,1.427,0,0,1,1.425-1.5h65.947c1.432,1.259.559,2.854-.686,2.854Z" transform="translate(-414.449 -207.568)" fill="#ccc"/><path d="M652.484,296.436H587.3a1.481,1.481,0,0,1-1.506-1.35,1.427,1.427,0,0,1,1.425-1.5h65.947c1.432,1.259.559,2.854-.686,2.854Z" transform="translate(-414.449 -213.884)" fill="#ccc"/><path d="M652.484,310.249H587.3a1.481,1.481,0,0,1-1.506-1.35,1.427,1.427,0,0,1,1.425-1.5h65.947c1.432,1.259.559,2.854-.686,2.854Z" transform="translate(-414.449 -220.204)" fill="#ccc"/><path d="M652.484,324.055H587.3a1.481,1.481,0,0,1-1.506-1.35,1.427,1.427,0,0,1,1.425-1.5h65.947c1.432,1.259.559,2.854-.686,2.854Z" transform="translate(-414.449 -226.521)" fill="#ccc"/><path d="M650.143,178a2.715,2.715,0,0,1,2.712,2.712v8.679a2.715,2.715,0,0,1-2.712,2.712H602.407a2.715,2.715,0,0,1-2.712-2.712v-8.679A2.715,2.715,0,0,1,602.407,178" transform="translate(-420.808 -161)" fill="#8496b0"/><path d="M872.54,435.335H787.917a9.232,9.232,0,0,1-9.222-9.222V357.222A9.232,9.232,0,0,1,787.917,348H872.54a9.232,9.232,0,0,1,9.222,9.222v68.892A9.232,9.232,0,0,1,872.54,435.335Zm-84.623-86.25a8.146,8.146,0,0,0-8.137,8.137v68.892a8.146,8.146,0,0,0,8.137,8.137H872.54a8.146,8.146,0,0,0,8.137-8.137V357.222a8.146,8.146,0,0,0-8.137-8.137Z" transform="translate(-481.761 -255.783)" fill="#3f3d56"/><path d="M872.54,435.335H787.917a9.232,9.232,0,0,1-9.222-9.222V357.222A9.232,9.232,0,0,1,787.917,348H872.54a9.232,9.232,0,0,1,9.222,9.222v68.892A9.232,9.232,0,0,1,872.54,435.335Zm-84.623-86.25a8.146,8.146,0,0,0-8.137,8.137v68.892a8.146,8.146,0,0,0,8.137,8.137H872.54a8.146,8.146,0,0,0,8.137-8.137V357.222a8.146,8.146,0,0,0-8.137-8.137Z" transform="translate(-701.761 -204.783)" fill="#3f3d56"/><path d="M896.668,383.731H853.96a1.481,1.481,0,0,1-1.506-1.35,1.427,1.427,0,0,1,1.425-1.5h43.474c1.432,1.259.559,2.854-.686,2.854Z" transform="translate(-515.509 -270.826)" fill="#3f3d56"/><path d="M896.668,383.731H853.96a1.481,1.481,0,0,1-1.506-1.35,1.427,1.427,0,0,1,1.425-1.5h43.474c1.432,1.259.559,2.854-.686,2.854Z" transform="translate(-735.509 -219.826)" fill="#3f3d56"/><path d="M896.668,397.541H853.96a1.481,1.481,0,0,1-1.506-1.35,1.427,1.427,0,0,1,1.425-1.5h43.474c1.432,1.258.559,2.854-.686,2.854Z" transform="translate(-515.509 -277.144)" fill="#3f3d56"/><path d="M896.668,397.541H853.96a1.481,1.481,0,0,1-1.506-1.35,1.427,1.427,0,0,1,1.425-1.5h43.474c1.432,1.258.559,2.854-.686,2.854Z" transform="translate(-735.509 -226.144)" fill="#3f3d56"/><path d="M825.864,392.13H812.83a1.607,1.607,0,0,1-1.605-1.605V375.143a1.607,1.607,0,0,1,1.605-1.605h13.034a1.607,1.607,0,0,1,1.605,1.605v15.381a1.607,1.607,0,0,1-1.605,1.605Z" transform="translate(-496.645 -267.468)" fill="#ccc"/><path d="M825.864,392.13H812.83a1.607,1.607,0,0,1-1.605-1.605V375.143a1.607,1.607,0,0,1,1.605-1.605h13.034a1.607,1.607,0,0,1,1.605,1.605v15.381a1.607,1.607,0,0,1-1.605,1.605Z" transform="translate(-716.645 -216.468)" fill="#ccc"/><path d="M920.864,474.62H907.83a1.607,1.607,0,0,1-1.605-1.605v-8.872a1.607,1.607,0,0,1,1.605-1.605h13.034a1.607,1.607,0,0,1,1.605,1.605v8.872a1.607,1.607,0,0,1-1.605,1.605Z" transform="translate(-540.112 -308.189)" fill="#3f3d56"/><path d="M920.864,474.62H907.83a1.607,1.607,0,0,1-1.605-1.605v-8.872a1.607,1.607,0,0,1,1.605-1.605h13.034a1.607,1.607,0,0,1,1.605,1.605v8.872a1.607,1.607,0,0,1-1.605,1.605Z" transform="translate(-760.112 -257.189)" fill="#3f3d56"/><path d="M877.484,425.817H812.3a1.481,1.481,0,0,1-1.506-1.35,1.427,1.427,0,0,1,1.425-1.5h65.947c1.432,1.259.559,2.854-.686,2.854Z" transform="translate(-496.449 -290.082)" fill="#ccc"/><path d="M877.484,425.817H812.3a1.481,1.481,0,0,1-1.506-1.35,1.427,1.427,0,0,1,1.425-1.5h65.947c1.432,1.259.559,2.854-.686,2.854Z" transform="translate(-716.449 -239.082)" fill="#ccc"/><path d="M877.484,439.631H812.3a1.481,1.481,0,0,1-1.506-1.35,1.427,1.427,0,0,1,1.425-1.5h65.947c1.432,1.259.559,2.854-.686,2.854Z" transform="translate(-496.449 -296.402)" fill="#ccc"/><path d="M877.484,439.631H812.3a1.481,1.481,0,0,1-1.506-1.35,1.427,1.427,0,0,1,1.425-1.5h65.947c1.432,1.259.559,2.854-.686,2.854Z" transform="translate(-716.449 -245.402)" fill="#ccc"/><path d="M877.484,453.436H812.3a1.481,1.481,0,0,1-1.506-1.35,1.427,1.427,0,0,1,1.425-1.5h65.947c1.432,1.259.559,2.854-.686,2.854Z" transform="translate(-496.449 -302.719)" fill="#ccc"/><path d="M877.484,453.436H812.3a1.481,1.481,0,0,1-1.506-1.35,1.427,1.427,0,0,1,1.425-1.5h65.947c1.432,1.259.559,2.854-.686,2.854Z" transform="translate(-716.449 -251.719)" fill="#ccc"/><path d="M843.31,467.249H812.3a1.481,1.481,0,0,1-1.506-1.35,1.427,1.427,0,0,1,1.425-1.5H844c1.432,1.258.559,2.854-.686,2.854Z" transform="translate(-496.449 -309.039)" fill="#ccc"/><path d="M843.31,467.249H812.3a1.481,1.481,0,0,1-1.506-1.35,1.427,1.427,0,0,1,1.425-1.5H844c1.432,1.258.559,2.854-.686,2.854Z" transform="translate(-716.449 -258.039)" fill="#ccc"/><path d="M843.31,481.055H812.3a1.481,1.481,0,0,1-1.506-1.35,1.427,1.427,0,0,1,1.425-1.5H844c1.432,1.258.559,2.854-.686,2.854Z" transform="translate(-496.449 -315.356)" fill="#ccc"/><path d="M843.31,481.055H812.3a1.481,1.481,0,0,1-1.506-1.35,1.427,1.427,0,0,1,1.425-1.5H844c1.432,1.258.559,2.854-.686,2.854Z" transform="translate(-716.449 -264.356)" fill="#ccc"/><path d="M875.143,349.1H827.407a2.715,2.715,0,0,1-2.712-2.712v-8.679A2.715,2.715,0,0,1,827.407,335h47.736a2.715,2.715,0,0,1,2.712,2.712v8.679a2.715,2.715,0,0,1-2.712,2.712Z" transform="translate(-502.808 -249.835)" fill="#8496b0"/><path d="M875.143,349.1H827.407a2.715,2.715,0,0,1-2.712-2.712v-8.679A2.715,2.715,0,0,1,827.407,335h47.736a2.715,2.715,0,0,1,2.712,2.712v8.679a2.715,2.715,0,0,1-2.712,2.712Z" transform="translate(-722.808 -198.835)" fill="#8496b0"/><ellipse cx="4.177" cy="4.177" rx="4.177" ry="4.177" transform="translate(-18 22.953)" fill="#8496b0"/><ellipse cx="4.177" cy="4.177" rx="4.177" ry="4.177" transform="translate(-18 39.601)" fill="#8496b0"/><ellipse cx="4.177" cy="4.177" rx="4.177" ry="4.177" transform="translate(-18 56.249)" fill="#8496b0"/><ellipse cx="4.177" cy="4.177" rx="4.177" ry="4.177" transform="translate(-18 72.898)" fill="#8496b0"/><ellipse cx="4.177" cy="4.177" rx="4.177" ry="4.177" transform="translate(-0.559 22.953)" fill="#8496b0"/><ellipse cx="4.177" cy="4.177" rx="4.177" ry="4.177" transform="translate(-0.559 39.601)" fill="#8496b0"/><ellipse cx="4.177" cy="4.177" rx="4.177" ry="4.177" transform="translate(-0.559 56.249)" fill="#8496b0"/><ellipse cx="4.177" cy="4.177" rx="4.177" ry="4.177" transform="translate(-0.559 72.898)" fill="#8496b0"/><ellipse cx="4.177" cy="4.177" rx="4.177" ry="4.177" transform="translate(16.882 22.953)" fill="#8496b0"/><ellipse cx="4.177" cy="4.177" rx="4.177" ry="4.177" transform="translate(16.882 39.601)" fill="#8496b0"/><ellipse cx="4.177" cy="4.177" rx="4.177" ry="4.177" transform="translate(16.882 56.249)" fill="#8496b0"/><ellipse cx="4.177" cy="4.177" rx="4.177" ry="4.177" transform="translate(16.882 72.898)" fill="#8496b0"/><ellipse cx="4.177" cy="4.177" rx="4.177" ry="4.177" transform="translate(34.323 22.953)" fill="#8496b0"/><ellipse cx="4.177" cy="4.177" rx="4.177" ry="4.177" transform="translate(34.323 39.601)" fill="#8496b0"/><ellipse cx="4.177" cy="4.177" rx="4.177" ry="4.177" transform="translate(34.323 56.249)" fill="#8496b0"/><ellipse cx="4.177" cy="4.177" rx="4.177" ry="4.177" transform="translate(34.323 72.898)" fill="#8496b0"/><ellipse cx="4.177" cy="4.177" rx="4.177" ry="4.177" transform="translate(51.763 22.953)" fill="#8496b0"/><ellipse cx="4.177" cy="4.177" rx="4.177" ry="4.177" transform="translate(51.763 39.601)" fill="#8496b0"/><ellipse cx="4.177" cy="4.177" rx="4.177" ry="4.177" transform="translate(51.763 56.249)" fill="#8496b0"/><ellipse cx="4.177" cy="4.177" rx="4.177" ry="4.177" transform="translate(51.763 72.898)" fill="#8496b0"/><ellipse cx="5.094" cy="5.094" rx="5.094" ry="5.094" transform="translate(359.765 228.634)" fill="#8496b0"/><ellipse cx="5.094" cy="5.094" rx="5.094" ry="5.094" transform="translate(359.765 248.936)" fill="#8496b0"/><ellipse cx="5.094" cy="5.094" rx="5.094" ry="5.094" transform="translate(359.765 269.237)" fill="#8496b0"/><ellipse cx="5.094" cy="5.094" rx="5.094" ry="5.094" transform="translate(381.032 228.634)" fill="#8496b0"/><ellipse cx="5.094" cy="5.094" rx="5.094" ry="5.094" transform="translate(381.032 248.936)" fill="#8496b0"/><ellipse cx="5.094" cy="5.094" rx="5.094" ry="5.094" transform="translate(381.032 269.237)" fill="#8496b0"/><ellipse cx="5.094" cy="5.094" rx="5.094" ry="5.094" transform="translate(402.3 228.634)" fill="#8496b0"/><ellipse cx="5.094" cy="5.094" rx="5.094" ry="5.094" transform="translate(402.3 248.936)" fill="#8496b0"/><ellipse cx="5.094" cy="5.094" rx="5.094" ry="5.094" transform="translate(402.3 269.237)" fill="#8496b0"/><ellipse cx="5.094" cy="5.094" rx="5.094" ry="5.094" transform="translate(423.567 228.634)" fill="#8496b0"/><ellipse cx="5.094" cy="5.094" rx="5.094" ry="5.094" transform="translate(423.567 248.936)" fill="#8496b0"/><ellipse cx="5.094" cy="5.094" rx="5.094" ry="5.094" transform="translate(423.567 269.237)" fill="#8496b0"/></g></g></svg>