<svg xmlns="http://www.w3.org/2000/svg" xmlns:xlink="http://www.w3.org/1999/xlink" width="298" height="280" viewBox="0 0 298 280"><defs><clipPath id="a"><rect width="298" height="280" transform="translate(1068 145)" fill="#fff" stroke="#707070" stroke-width="1"/></clipPath></defs><g transform="translate(-1068 -145)" clip-path="url(#a)"><g transform="matrix(0.946, -0.326, 0.326, 0.946, 1067.996, 184.863)" opacity="0.46"><path d="M533.456,353.13,381.864,392.167a20.045,20.045,0,0,1-24.383-14.4L311.636,199.737a20.045,20.045,0,0,1,14.4-24.383l141.032-36.317,36.1,16.16,44.691,173.55a20.045,20.045,0,0,1-14.4,24.383Z" transform="translate(-310.999 -139.037)" fill="#f2f2f2"/><path d="M331.206,184.88a14.274,14.274,0,0,0-10.252,17.364L366.8,380.277a14.274,14.274,0,0,0,17.364,10.252l151.592-39.037a14.274,14.274,0,0,0,10.252-17.363l-44-170.861-31.723-14.2Z" transform="translate(-314.735 -142.981)" fill="#fff"/><path d="M603.706,156.424l-23.461,6.042a6.669,6.669,0,0,1-8.121-4.795l-4.462-17.328a.417.417,0,0,1,.573-.485l35.536,15.782a.417.417,0,0,1-.065.785Z" transform="translate(-411.929 -139.346)" fill="#f2f2f2"/><path d="M559.3,413.511l-69.018,17.773a3.334,3.334,0,0,1-1.663-6.458l69.018-17.773a3.334,3.334,0,0,1,1.663,6.458Z" transform="translate(-379.864 -244.396)" fill="#ccc"/><path d="M577.243,425.818l-82.337,21.2a3.334,3.334,0,0,1-1.663-6.458l82.337-21.2a3.334,3.334,0,0,1,1.663,6.458Z" transform="translate(-381.683 -249.237)" fill="#ccc"/><circle cx="11.785" cy="11.785" r="11.785" transform="translate(70.463 184.724)" fill="#e6e6e6"/><path d="M514.424,305.406,422.761,329a10.326,10.326,0,0,1-12.56-7.418L390.992,246.96a10.326,10.326,0,0,1,7.418-12.56l91.663-23.6a10.326,10.326,0,0,1,12.56,7.418l19.209,74.623a10.326,10.326,0,0,1-7.418,12.561Z" transform="translate(-342.328 -167.133)" fill="#fff"/><path d="M514.424,305.406,422.761,329a10.326,10.326,0,0,1-12.56-7.418L390.992,246.96a10.326,10.326,0,0,1,7.418-12.56l91.663-23.6a10.326,10.326,0,0,1,12.56,7.418l19.209,74.623a10.326,10.326,0,0,1-7.418,12.561Zm-115.712-69.83a9.111,9.111,0,0,0-6.545,11.083l19.209,74.623a9.111,9.111,0,0,0,11.083,6.545l91.663-23.6a9.111,9.111,0,0,0,6.545-11.083l-19.209-74.623a9.111,9.111,0,0,0-11.083-6.545Z" transform="translate(-342.328 -167.133)" fill="#e6e6e6"/><path d="M515.505,250.243l-46.261,11.908a1.657,1.657,0,0,1-2.007-1.043,1.6,1.6,0,0,1,1.124-2.026l47.091-12.122c1.9.964,1.4,2.935.053,3.283Z" transform="translate(-372.411 -181.48)" fill="#f2f2f2"/><path d="M518.948,263.617l-46.261,11.908a1.657,1.657,0,0,1-2.007-1.043,1.6,1.6,0,0,1,1.124-2.026L518.9,260.335c1.9.964,1.4,2.935.053,3.282Z" transform="translate(-373.765 -186.739)" fill="#f2f2f2"/><path d="M446.129,284.139l-14.118,3.634a1.8,1.8,0,0,1-2.186-1.291l-4.289-16.661a1.8,1.8,0,0,1,1.291-2.186L440.945,264a1.8,1.8,0,0,1,2.186,1.291l4.289,16.661a1.8,1.8,0,0,1-1.291,2.186Z" transform="translate(-356.019 -188.159)" fill="#e6e6e6"/><path d="M510,291.057l-70.6,18.174a1.657,1.657,0,0,1-2.007-1.043,1.6,1.6,0,0,1,1.124-2.026l71.433-18.388c1.9.964,1.4,2.935.053,3.283Z" transform="translate(-360.673 -197.53)" fill="#f2f2f2"/><path d="M513.442,304.435l-70.6,18.174a1.657,1.657,0,0,1-2.007-1.043,1.6,1.6,0,0,1,1.124-2.026l71.433-18.388c1.9.964,1.4,2.935.053,3.283Z" transform="translate(-362.027 -202.791)" fill="#f2f2f2"/><path d="M516.883,317.8l-70.6,18.174a1.657,1.657,0,0,1-2.007-1.043,1.6,1.6,0,0,1,1.124-2.026l71.433-18.388c1.9.964,1.4,2.935.053,3.283Z" transform="translate(-363.38 -208.049)" fill="#f2f2f2"/><path d="M520.327,331.181l-70.6,18.174a1.657,1.657,0,0,1-2.007-1.043,1.6,1.6,0,0,1,1.124-2.026L520.274,327.9c1.9.964,1.4,2.935.053,3.283Z" transform="translate(-364.735 -213.31)" fill="#f2f2f2"/><path d="M523.768,344.551l-70.6,18.174a1.657,1.657,0,0,1-2.007-1.043,1.6,1.6,0,0,1,1.124-2.026l71.433-18.388c1.9.964,1.4,2.935.053,3.282Z" transform="translate(-366.088 -218.568)" fill="#f2f2f2"/><path d="M444.91,463.265a1.223,1.223,0,0,1-.773-.053l-.015-.006-3.21-1.361a1.231,1.231,0,1,1,.963-2.265l2.08.885,2.726-6.413a1.23,1.23,0,0,1,1.614-.651h0l-.016.042.017-.042a1.232,1.232,0,0,1,.651,1.614l-3.207,7.54a1.231,1.231,0,0,1-.828.709Z" transform="translate(-361.793 -262.626)" fill="#fff"/><path d="M659.035,458.6H502.5a20.045,20.045,0,0,1-20.022-20.022V254.737A20.045,20.045,0,0,1,502.5,234.715H648.13l30.927,24.651V438.578A20.045,20.045,0,0,1,659.035,458.6Z" transform="translate(-378.433 -176.664)" fill="#e6e6e6"/><path d="M506.232,244.215a14.274,14.274,0,0,0-14.258,14.258V442.314a14.274,14.274,0,0,0,14.258,14.258H662.77a14.274,14.274,0,0,0,14.258-14.258V265.878l-27.18-21.664Z" transform="translate(-382.168 -180.4)" fill="#fff"/><path d="M674.938,328h-71.27a3.334,3.334,0,0,1,0-6.669h71.27a3.334,3.334,0,1,1,0,6.669Z" transform="translate(-424.783 -210.726)" fill="#8496b0"/><path d="M688.692,346.544H603.669a3.334,3.334,0,0,1,0-6.669h85.023a3.334,3.334,0,1,1,0,6.668Z" transform="translate(-424.783 -218.02)" fill="#8496b0"/><path d="M674.94,404.443H603.673a3.334,3.334,0,1,0,0,6.668H674.94a3.334,3.334,0,0,0,0-6.668Z" transform="translate(-424.784 -243.412)" fill="#ccc"/><path d="M688.695,422.993H603.673a3.334,3.334,0,1,0,0,6.668h85.022a3.334,3.334,0,1,0,0-6.668Z" transform="translate(-424.784 -250.707)" fill="#ccc"/><path d="M674.938,494.232h-71.27a3.334,3.334,0,0,1,0-6.669h71.27a3.334,3.334,0,1,1,0,6.669Z" transform="translate(-424.783 -276.1)" fill="#ccc"/><path d="M688.692,512.779H603.669a3.334,3.334,0,0,1,0-6.669h85.023a3.334,3.334,0,1,1,0,6.668Z" transform="translate(-424.783 -283.394)" fill="#ccc"/><circle cx="11.785" cy="11.785" r="11.785" transform="translate(137.423 107.779)" fill="#8496b0"/><path d="M552.4,337.7a1.222,1.222,0,0,1-.735-.244l-.013-.01-2.77-2.119a1.231,1.231,0,0,1,1.5-1.953l1.794,1.376,4.239-5.53a1.23,1.23,0,0,1,1.725-.228h0l-.026.036.027-.036a1.232,1.232,0,0,1,.228,1.725l-4.986,6.5a1.231,1.231,0,0,1-.979.48Z" transform="translate(-404.358 -213.638)" fill="#fff"/><path d="M563.058,411.573a11.784,11.784,0,0,1-11.783,11.789,2.542,2.542,0,0,1-.3-.012,11.784,11.784,0,1,1,12.086-11.777Z" transform="translate(-400.855 -241.58)" fill="#ccc"/><circle cx="11.785" cy="11.785" r="11.785" transform="translate(137.423 208.639)" fill="#ccc"/><path d="M785.457,260.461H761.231a6.669,6.669,0,0,1-6.669-6.669V235.9a.417.417,0,0,1,.676-.327l30.478,24.145a.417.417,0,0,1-.259.744Z" transform="translate(-485.435 -176.966)" fill="#ccc"/><path d="M569.312,411.682a11.784,11.784,0,0,1-11.783,11.789,2.527,2.527,0,0,1-.3-.012,25.514,25.514,0,0,1,2.287-23.4A11.791,11.791,0,0,1,569.312,411.682Z" transform="translate(-407.109 -241.689)" fill="#8496b0"/><path d="M600.334,407.78a3.343,3.343,0,0,1,3.337-3.337H621.43a25.225,25.225,0,0,1,2.19,6.668H603.671a3.338,3.338,0,0,1-3.337-3.33Z" transform="translate(-424.783 -243.412)" fill="#8496b0"/><path d="M624.035,422.993a25.435,25.435,0,0,1-.886,6.668H603.673a3.334,3.334,0,0,1,0-6.668Z" transform="translate(-424.784 -250.707)" fill="#8496b0"/><path d="M679.911,470.389a3.641,3.641,0,0,1-5,1.212l-42.474-25.908a3.64,3.64,0,0,1,3.791-6.216L678.7,465.385a3.641,3.641,0,0,1,1.212,5Z" transform="translate(-436.72 -256.98)" fill="#3f3d56"/><path d="M606.816,419.361a29.123,29.123,0,1,1-9.7-40.029,29.123,29.123,0,0,1,9.7,40.029Zm-43.51-26.54a21.842,21.842,0,1,0,30.021-7.273,21.842,21.842,0,0,0-30.021,7.273Z" transform="translate(-406.099 -231.86)" fill="#3f3d56"/></g></g></svg>