<svg xmlns="http://www.w3.org/2000/svg" xmlns:xlink="http://www.w3.org/1999/xlink" width="623" height="285" viewBox="0 0 623 285"><defs><clipPath id="a"><rect width="623" height="285" transform="translate(743 146)" fill="#fff" stroke="#707070" stroke-width="1"/></clipPath></defs><g transform="translate(-743 -146)" clip-path="url(#a)"><g transform="translate(674.046 111.897)" opacity="0.3"><g transform="translate(68.953 83.999)"><path d="M377.328,167.617c1.123,4.368-.261,7.739-5.011,9.924-2.075.955-3.544,3.215-5.306,4.864-1.884,1.762-4.717,3.208-5.394,5.344-.552,1.741,1.393,4.328,2.363,6.481.854,1.894-.183,2.985-1.405,4.122-3.269,3.039-4.833,6.058-2.122,10.693,2.561,4.381-1.046,8.034-3.22,11.6-.146.239-1.924-.076-2.436-.614a6.392,6.392,0,0,1-1.26-2.917c-.423-1.828-1.091-1.716-2.683-1.019-3.876,1.7-7.889,3.1-11.9,4.472-3.232,1.105-4.14.533-5.011-2.848-.2-.766.163-1.834-.248-2.355-1.075-1.359-2.7-3.713-3.641-3.511-5.382,1.149-9.194-2.293-13.489-4.107-1.767-.746-2.811-.94-4.163.42-2.616,2.632-5.55,3.919-9.243,2-.569-.3-1.563.069-2.307.3-4.109,1.279-4.288,1.347-5.359-2.657-.5-1.855-.963-2.853-3.057-2.609-1.855.215-4.084-.45-5.549.358-4.5,2.484-7.46-2.162-11.375-2.046-.377.011-1.044-1.108-1.14-1.767-.69-4.717-1.276-9.45-1.869-14.181-.066-.524.226-1.155.029-1.59-.966-2.134,3.549-4.61-.068-6.17-1.655-.713-4.066.4-6.144.544-.548.037-1.546-.374-1.637-.749-1.353-5.543-4.514-10.695-3.416-16.8a6.779,6.779,0,0,0-1.22-4.414c-3.179-4.792-2.653-9.655-.3-14.377a46.242,46.242,0,0,1,6.011-9.3c1.814-2.135,3.47-1.562,5.027.9,1.416,2.242,2.789,4.515,4.3,6.692,3.3,4.761,6.8,8.677,13.492,5.064,1.681-.909,4.236-.438,6.357-.246,4.062.369,7.122-1.144,9.983-3.973,5.052-5,7.58-5.789,13.322-1.892,5.373,3.647,10.143.743,15.138.39,1.225-.086,2.776-1.813,3.387-3.146,1.822-3.976,6.227-6.664,5.468-12.072-.207-1.473,2.2-3.463,3.651-4.984,2.486-2.608,4.366-5.357,4.105-9.189a8.587,8.587,0,0,1,.607-3.09c2.641-8.1,3.9-9.943,13.281-7.924a7.24,7.24,0,0,0,3.626-.043c4.361-1.442,8.391-.528,12.369,1.3,3.409,1.571,3.838,4.008,1.5,8.217-.366.659-.267,1.608-.7,2.192-2.448,3.323-2.532,5.71.963,8.944,2.466,2.281,3.121,6.529,4.479,9.941a4.342,4.342,0,0,1-1.756.979c-1.271.266-2.022.784-1.1,2a41.024,41.024,0,0,0,5.02,5.988c2.338,2.092,5.181,3.614,7.585,5.644,1.428,1.206,1.407,3.04-.395,3.936a14.338,14.338,0,0,1-5.31,1.4,37.005,37.005,0,0,1-5.962-.515c.19,3.061-3,.571-3.618,2.185-1.13,2.959-2.34,5.905-3.18,8.95C376.987,163.869,377.328,165.573,377.328,167.617Z" transform="translate(-74.532 -84.486)" fill="#8496b0"/><path d="M222.049,199.382c-1.627,1.953,3.138,5.075-.659,5.98-1.636.39-3.894-2.166-5.967-3.181-2.7-1.32-3.562-.965-2,2.141.409.813-.4,2.741-1.232,3.583-2.685,2.721.213,6.061-1.365,8.993-1.356,2.521-1.392,5.268-.638,8.428,1.319,5.534-1.3,10.941-2.426,16.376-.339,1.634-1.274,1.375-2.269.7-2.3-1.566-4.423-2.309-6.469.506-.228.313-1.858-.319-2.8-.62-1.386-.442-2.742-.979-4.109-1.476.3,1.229.666,2.448.869,3.694a3.992,3.992,0,0,1-.368,1.475c-.638-.232-1.478-.283-1.877-.729-1.951-2.18-4.331-4.209-5.534-6.772-1.947-4.153-5.187-6.625-8.827-8.926-3.814-2.412-7.807-4.638-11.242-7.517-2.357-1.977-3.981-4.873-5.762-7.475-.873-1.275-.977-3.536-2.081-4.121-6.186-3.273-8.693-10.007-13.856-14.2-2.025-1.646-4.2-3.471-2.493-6.774.348-.674-.366-1.975-.738-2.93-3.5-8.977-8.474-17.137-13.927-25.026a3.324,3.324,0,0,0-1.1-1.161c-6.084-2.9-7.375-8.561-8.441-14.41a32.4,32.4,0,0,0-1.576-5.335c-1.534-4.156-3.966-7.415-8.4-9.006-3.007-1.077-4.773-2.85-6.006-6.514-1.708-5.079-5.771-9.371-8.869-13.972a2.139,2.139,0,0,0-1.313-.882c-8.124-.962-11.448-8.212-16.638-12.92-1.806-1.639-2.465-4.6-3.478-7.034-.779-1.868-2.655-4.26-.473-5.726,1.463-.982,4.074-.361,6.161-.253.729.037,1.428.685,2.138,1.056a30.621,30.621,0,0,0,17.8,3.447c5.87-.64,9.679,1.792,11.922,7.166,1.2,2.887,4.7,4.42,4.79,8.115.017.742,1.36,1.537,2.2,2.159,5.135,3.8,10.311,7.536,15.446,11.33.855.632,2.062,1.328,2.27,2.2.678,2.817,2.23,4.272,5,5.184,1.225.4,1.916,2.423,2.853,3.706.986,1.348,1.95,2.61,3.834,1.145,2.045-1.589,3.97-1.17,5.729.573a5.557,5.557,0,0,0,1.2,1.062c4.46,2.337,5.786,3.441,7.731,6.84.745,1.3,1.431,2.073,3.094,1.2,2.98-1.573,4.647-.125,5.025,2.81.413,3.21,1.225,5.083,5.095,3.724,2.1-.738,3.821,3.174,6.729.878.823-.649,3.3,3.31,2.214,3.956-2.959,1.757-1.817,2.878-.069,4.425a33.689,33.689,0,0,1,3.32,3.44c.286.338.383,1.383.221,1.471-2.714,1.49-1.025,4.663-2.562,6.538-.846,1.032-2.2,1.8-2.65,2.956a3.771,3.771,0,0,0,.495,3.368c2.2,2.085,5.024,2.612,8.093,2.755,4.1.191,5.24.881,4.6,4.736-1.017,6.083,5.425,7.332,6.522,11.846.135.557,1.848,1.065,2.807,1.025,2.742-.112,4.6.754,5.637,3.457.248.645,1.568.877,2.4,1.3.216-.993.785-2.062.587-2.964-.8-3.636-1.988-4.451-6.1-4.706-1.322-.082-2.649-.156-3.952-.368-.237-.039-.622-.961-.509-1.084a46.657,46.657,0,0,1,5.875-6c1.111-.84,3.038-.643,4.606-.832,3-.362,4.841,1.257,4.812,4.016-.05,4.944,1.77,8.192,6.636,9.622a2.415,2.415,0,0,1,1.493,1.7C223.464,198.15,222.559,198.765,222.049,199.382Z" transform="translate(-68.953 -83.999)" fill="#8496b0"/><path d="M707.968,296.456c-4.865-4.835-9.1-8.894-13.145-13.137a6.151,6.151,0,0,0-5.674-2.117c-2.237.263-4.434,2.01-6.866.2-.445-.332-2.179.3-2.714.973-5.018,6.282-11.931,2.711-17.977,3.528-.157.02-.822-1.249-.64-1.572a134.757,134.757,0,0,1,6.939-11.589c.944-1.339,2.938-2.152,4.617-2.714,3.542-1.188,2.912-1,2.6-4.993-.609-7.819-5.352-13.585-8.948-19.867-2.715-4.747-7.249-7.635-12.687-9.109a44.136,44.136,0,0,1-8.805-3.574c-4.3-2.248-8.673-4.181-13.569-4.214a13.8,13.8,0,0,1-10.655-4.626c-.654-.711-1.887-1.791-2.41-1.585-5.509,2.189-8.4-1.642-11.408-4.893-1.931-2.089-2.838-1.638-3.653.746a8.668,8.668,0,0,1-1.09,2.131c-1.437,2.053-3.295,3.5-5.95,3.156-1.911-.249-3.622-3.729-3.379-6.515.5-5.713-1.033-7.909-7.022-9.382-1.8-.442-3.478-1.171-2.784-2.908.545-1.363,3.14-3.329,3.787-3,4.384,2.243,7.724.611,10.907-2.161,1.752-1.526,3.4-.418,5.127-.121a11.25,11.25,0,0,0,3.2.066,7.733,7.733,0,0,0,2.011-.846c-.727-.739-1.394-2.029-2.193-2.117a43.438,43.438,0,0,0-7.212.019c-.758.044-1.471.8-2.233.852-8.5.631-11.333,2.113-15.189-7.339-.9-2.2-2.324-3.721-4.808-3.384-5.732.775-9.9-1.136-12.356-6.525-.295-.644-1.215-.981-1.762-1.542-.414-.424-1.09-1.212-.962-1.429a3.236,3.236,0,0,1,1.711-1.538c1.28-.279,2.863-.638,3.94-.14,6.205,2.869,11.713.1,16.192-3.136,5.995-4.334,10.985-4.154,16.8-.282a26.826,26.826,0,0,0,8.106,3.135c6.129,1.6,7.887,4.2,6.8,10.189a80.78,80.78,0,0,0-1.287,10.96c-.134,3.2,1.07,3.829,3.752,1.95,1.615-1.131,2.939-2.13,2.532.773-.532,3.791,1.543,6.245,3.217,9.143,2.628,4.55,4.665,5.643,8.469,2.4A49,49,0,0,0,641.2,199.01c1.512-2.449,3.05-3.073,5.431-3.684,3.216-.826,6.279-1.443,8.035-5.471,1.954-4.481,6.4-5.213,11.518-3.776a48.149,48.149,0,0,1,13.8,6.043,35.971,35.971,0,0,0,17,6.261c2.326.193,4.6,1.17,6.865,1.894,2,.639,2.88,1.973,2.841,4.206-.112,6.166-.175,12.342.047,18.5.2,5.59.873,11.16,1.2,16.747.17,2.941.491,5.983-.042,8.832-1.891,10.124-1.3,20.146-.035,30.281C708.527,284.309,707.968,289.924,707.968,296.456Z" transform="translate(-83.488 -86.505)" fill="#8496b0"/><path d="M465.659,160.519c-3.7-.807-6.765-1.509-9.849-2.133a17.057,17.057,0,0,0-3.19-.313c-10.188-.1-20.377-.152-30.565-.248-2.839-.027-4.359,1.417-5.2,4.04-1.924,6.024-2.2,11.553,3.973,15.459,2.107,1.332,1.843,5.893,5.486,4.722,2.074-.665,3.575-2.983,5.476-4.361,1.234-.895,3.064-2.35,4.046-1.987,6.2,2.3,10.89-2.307,16.35-3.168,1.273-.2,2.411-1.193,3.686-1.453,4.334-.885,6.863,1.571,5.487,5.854-.691,2.15-.814,2.921,1.081,4.41,1.079.848,1.05,3.382,1.106,5.17.048,1.508-.905,2.416-2.626,1.8-1.9-.682-3.775-1.763-5.711-1.886-1.416-.089-2.668.343-2.958-1.458-.3-1.861-.6-3.808,2.063-4.385a11.456,11.456,0,0,0,2.947-1.126c.389-.21.542-.862.8-1.312-.477-.215-1.019-.7-1.419-.6-1.724.422-4.308.5-4.947,1.632-2.948,5.213-7.714,7.855-12.674,10.561-3.179,1.734-2.978,2.519-.687,5.138a110.237,110.237,0,0,1,8.035,9.9c.936,1.36.727,3.5,1.065,5.28a41,41,0,0,0,1.408,6.828c1.421,3.774,1.589,3.711,6.063,2.681,2.916-.672,4.626.683,3.364,3.262-1.147,2.341-.562,3.878.05,5.957.393,1.335.1,3.953-.7,4.352-2.247,1.118-2.047,1.888-.477,3.262,2.4,2.1,1.338,3.693-.825,5.025-.883.544-1.916.843-2.8,1.384-1.734,1.058-3.38,2.266-5.147,3.262-.306.173-4.247-7.772-4.2-8.554a11.064,11.064,0,0,1,3.952-8.391c1.112-.933.517-1.829-.9-1.916-2.681-.163-4.85.267-4.688,3.765.127,2.753-1.9,3.007-3.84,2.7-4.51-.7-7.171-4.237-5.4-8.747,1.338-3.41.023-4.142-2.3-5.2a24,24,0,0,1-3.534-1.773c-2.208-1.485-3.253-3.5-2.288-6.208.444-1.242,1.243-2.48,1.257-3.726a44.53,44.53,0,0,0-.732-6.185,30.547,30.547,0,0,0-5.024,1.806c-2.061,1.158-3.189,3.072-1.824,5.389a9.674,9.674,0,0,1,.619,9.255c-2.032,3.86.822,7.318-.323,10.888a14.162,14.162,0,0,0,.678,10.888c.636,1.33.477,3.127-2,3.352a58.221,58.221,0,0,0-6.917,1.354c-4.911,1.06-7.758-1.628-7-6.725.777-5.239,1.76-10.451,2.41-15.7.215-1.749-.429-3.587-.493-5.391-.131-3.641-1.281-4.872-4.891-2.821a2.987,2.987,0,0,1-4.458-2.089c-.771-4.115-2.067-8.693,1.76-12,4.482-3.871,4.77-9.158,5.748-14.309.489-2.574.366-5.925,1.942-7.508,4.753-4.774,4.776-10.832,6.217-16.664.989-4,3.392-7.673,5.356-11.388a2.619,2.619,0,0,1,2.478-.464c1.86,1.734,2.492,1.7,3.753-.859,2.867-5.814,3.53-5.827,9.2-3.739,11.42,4.2,23.268,5.295,35.345,4.954,3.631-.1,5.479-2.892,7.942-4.656,2.053-1.472,3.394-3.9,5.285-5.652,1.559-1.443,3.3-1.464,4.877.365,1.352,1.564.946,2.634-.264,4.113-3.527,4.312-6.354,9.348-10.445,12.99C473.2,159.419,468.886,159.542,465.659,160.519Z" transform="translate(-78.601 -85.615)" fill="#8496b0"/><path d="M318.743,274.04c2.145,0,4.393-.4,6.4.116,1.9.493,4.74,1.65,5.1,3.045,1.112,4.333,4.072,3.707,6.891,3.312,3.679-.515,6.929.125,9.626,2.652a2.7,2.7,0,0,1,.306,2.6c-2.681,3.673-6.686,4.45-10.987,2.363a35.588,35.588,0,0,0-3.6-1.673c-.495-.175-1.165.145-1.755.24q.2.75.4,1.5.373,1.411.743,2.822a14.23,14.23,0,0,1-2.818-.334c-8.283-2.68-16.45-5.138-25.375-5.786-6.152-.447-12.428,1.486-18.568-1.051-5.6-2.314-11.578-3.707-17.325-5.693-4.591-1.586-14.592-2.528-21.394-1.5-3.166.479-6.825-.535-9.916-1.749-4.707-1.849-9.184-3.61-14.458-2.854-3.041.437-3.482-.808-3.039-5.093.081-.775-.492-2.25-.976-2.348-3.328-.675-6.456-2.833-10.079-1.56-.736.258-1.669.861-2.191.617a4.988,4.988,0,0,1-2.143-2.141,2.127,2.127,0,0,1,.917-1.824c4.2-.789,5.738-4.454,8.112-7.229,2.743-3.206,5.465-5.618,10.218-2.814,1.978,1.167,4.827,2.538,7.576.477.621-.465,2.565-.307,2.945.235,2.249,3.2,5.67,2.363,8.709,3.077,3.287.772,6.807,1.438,8.91,4.75,1.582,2.491,4.074,2.916,6.949,3.034,3.946.161,7.851,1.122,11.8,1.533,3.31.346,6.019-.114,8.011-3.7,2.047-3.684,2.609-3.278,7.2-1.4a22.962,22.962,0,0,0,6.844,1.549c2.463.186,4.634.44,6.648,2.2,1.055.921,2.9,1.165,4.419,1.292,7.426.62,14.865,1.078,22.293,1.66.6.047,1.164.6,1.743.911-.347.394-.62.926-1.054,1.161-4.927,2.676-9.848,5.388-15.824,3.737-.464-.128-1.109.4-1.669.625.369.649.626,1.751,1.125,1.874,3.033.746,6.121,1.27,9.19,1.868C318.678,274.369,318.71,274.2,318.743,274.04Z" transform="translate(-72.929 -88.856)" fill="#8496b0"/><path d="M528.037,131.954c.321,2.417-1.15,4.6.032,7.347,1.76,4.089-1.674,6.852-4.066,9.714-.34.408.008,1.389.037,2.1.458-.213,1.085-.3,1.346-.657,1.527-2.087,2.8-4.387,4.492-6.318a14.723,14.723,0,0,1,4.769-3.674c.825-.375,2.68.392,3.391,1.222.634.739.542,2.306.384,3.455a5.135,5.135,0,0,1-1.3,2.86,61.016,61.016,0,0,1-4.978,3.93c1.6.967,3.495,1.662,4.7,2.986.985,1.079,1.178,2.9,1.652,4.413a3.815,3.815,0,0,1-.061,1.28c-.5-.039-1.124.1-1.475-.147-2.451-1.729-4.968-3.325-8.12-2.523a3.022,3.022,0,0,0-1.9,1.9c-.637,3.772-.386,7.468,2.13,10.634,1,1.256,2.192,2.365,3.107,3.674.37.532.23,1.419.321,2.144a16.957,16.957,0,0,1-2.79-.13c-.458-.092-.814-.662-1.228-1-1.055-.866-1.058-.862-4.313.115-2.748.826-8.078-1.4-9.24-4.09-.588-1.363-1.307-3.29-.773-4.374.891-1.809,2.616-.6,4.135-.067,2.49.876,4.088-.209,4.211-2.67a10.8,10.8,0,0,0-.526-3.029c-1.061-4.291-2.163-8.572-3.234-12.862-1.149-4.607,1.5-8.279,3.289-12.036,1.108-2.321,2.868-4.7,6.246-3.932Z" transform="translate(-82.097 -85.416)" fill="#8496b0"/><path d="M474.046,289.936c-2.935-.531-5.235-1.07-7.565-1.317-1.18-.125-2.412.375-3.627.43-9.231.415-17.763,4.685-26.9,5.139-7.436.369-14.937-.748-22.394-.572-2.553.061-4.632-.009-6.523-1.626-1.09-.933-3.348-1.176-2.474-3.321.123-.3,2.363.594,3.416.267a13.908,13.908,0,0,0,4.806-2.508c3.9-3.3,7.615-4.213,12.227-1.061,3.962,2.708,8.627,2.465,13.415,2.746,6.288.37,11.657-.187,17.024-3.44,1.914-1.16,4.582-1.322,6.934-1.462,5.069-.3,10.159-.441,15.233-.333a14.81,14.81,0,0,1,5.991,1.511,1.738,1.738,0,0,1-.045,3.2A93.159,93.159,0,0,1,474.046,289.936Z" transform="translate(-78.86 -89.872)" fill="#8496b0"/><path d="M394.789,294.127c-2.012,0-3.218.342-3.553-.053-3.19-3.773-6.161-.943-8.925.386-5.8,2.792-11.271,4.111-16.6-1-.535-.512-2.282.231-3.465.406-2.775.408-5.5,2.459-8.338.374-.537-.395-.755-1.225-1.121-1.853,4.119-.9,2.184-5.444,4.484-7.443,2.581-2.244,5.982-2.587,7.675.2,1.905,3.138,3.419,2.608,6.356,1.852,3.542-.912,5.231-5.484,9.692-4.26,3.54.97,7.247,1.317,10.828,2.164a19.539,19.539,0,0,1,5.861,2.234c1.163.73,2.619,2.565,2.39,3.54-.3,1.26-2.031,2.342-3.364,3.138A3.063,3.063,0,0,1,394.789,294.127Z" transform="translate(-77.336 -89.863)" fill="#8496b0"/><path d="M536.678,205.032c2,1.206,4.321-2.5,6.254.107,2.308,3.107,4.137-1.105,6.441-.166,6.129,2.5,13.475,2.958,16.425,10.436.29.737.914,1.487.852,2.183a5.568,5.568,0,0,1-1.121,2.829c-.264.334-1.46.222-2.061-.056-2.643-1.221-5.2-2.633-7.833-3.867-3.152-1.475-5.905-4.369-10.07-1.889-1.056.629-3.614-.5-5.052-1.459-2.289-1.53-2.781-.367-2.692,1.464.115,2.358-.55,3.251-3.087,3.3a24.2,24.2,0,0,0-6.761,1.518c-1.163.375-2.32,1.867-3.233.086a4.661,4.661,0,0,1-.076-3.449c1.347-3.36.4-4.263-2.955-3.279-.289.084-1.147-.593-1.107-.779.147-.683.4-1.656.907-1.89,1.395-.643,3.63-.5,4.3-1.5C528.57,204.491,532.584,204.986,536.678,205.032Z" transform="translate(-82.293 -87.549)" fill="#8496b0"/><path d="M462.321,317.383c-.427-1.762-4.692-3.869.474-5.162.327-.082.807-.913.7-1.18-1.634-3.952,1.523-5.685,3.622-7.837,4.031-4.134,9.382-5.935,14.623-7.808a4.033,4.033,0,0,1,3.475.862c.6.594.508,2.269.2,3.308-1.992,6.732-6.631,11.2-13.793,14.67-3.1,1.5-5.783,3.769-9.538,2.9Z" transform="translate(-80.511 -90.239)" fill="#8496b0"/><path d="M407.584,301.144c2.87-1.691,5.686-.1,8.364,3.057,1.308,1.544,3.478,2.331,5.158,3.594,1.843,1.386,2.95,3.173,1.662,5.493a4.763,4.763,0,0,1-5.386,2.538,9.919,9.919,0,0,1-4.938-2.3c-3.516-3.7-7.884-5.062-12.683-5.873a3.5,3.5,0,0,1-2.251-2.526c-.018-1.05.985-2.8,1.883-3.051C401.634,301.442,404.065,301.485,407.584,301.144Z" transform="translate(-78.657 -90.392)" fill="#8496b0"/><path d="M622.995,252.248c.078.391.459,1.9.651,3.429.184,1.47.569,3.084.168,4.427-1.178,3.951-2.908,5.506-3.784,4.5-2.754-3.163-3.075,1.463-4.917,1.144-1.613-.279-3.494-1.933-3.162-3.813.9-5.1,1.733-10.22,3.015-15.224.384-1.5,2.091-2.713,3.349-3.892a1.944,1.944,0,0,1,1.876.01C622.845,244.936,623.387,246.643,622.995,252.248Z" transform="translate(-84.989 -88.683)" fill="#8496b0"/><path d="M507.927,208.444a16.384,16.384,0,0,1,2.4.015c4.142.608,6.991,4.288,6.1,7.806-.755,2.974-5.829,5.607-9.1,4.559a20.307,20.307,0,0,1-4.282-2.113c-2.609-1.594-5.035-3.85-4.15-7,.786-2.8,3.971-3.034,6.626-3.255C506.318,208.389,507.125,208.446,507.927,208.444Z" transform="translate(-81.646 -87.674)" fill="#8496b0"/><path d="M505.874,191a23.9,23.9,0,0,1-3.216.808c-3.264.3-4.872,1.471-3.222,5.016.307.659-.39,1.785-.623,2.695-.609-.489-1.652-.9-1.758-1.48-.822-4.484-3.983-5.15-7.705-4.9-3.408.226-6.807.6-10.215.838a30.133,30.133,0,0,1-3.444-.143c.337-1.7.122-4.274,1.129-4.906a11.085,11.085,0,0,1,6.762-1.648C490.85,188.2,498.051,189.654,505.874,191Z" transform="translate(-80.966 -87.048)" fill="#8496b0"/><path d="M565.971,286.859c3.523-3.237,4.3-7.215,3.352-11.712-.129-.614-.353-1.733-.178-1.811,4.022-1.769,7.351-5.233,12.152-5.089a2.79,2.79,0,0,1,1.486.461,2.311,2.311,0,0,1,.862,1.274c.07.332-.341,1.1-.517,1.1-4.237-.141-4.728,2.952-5.956,6.03A16.158,16.158,0,0,1,565.971,286.859Z" transform="translate(-83.633 -89.441)" fill="#8496b0"/><path d="M240.681,210.044a4.057,4.057,0,0,1-1.889.886,2.628,2.628,0,0,1-2.09-1.3c-1.662-4.182-1.306-5.164,2.482-7.555,1.1-.694,2.527-1.9,3.443-1.629a9.627,9.627,0,0,1,5,3.054c1.333,1.87.06,6.427-1.737,7.061C244.67,210.99,243.059,210.329,240.681,210.044Z" transform="translate(-73.88 -87.437)" fill="#8496b0"/><path d="M565.887,163.635a17.62,17.62,0,0,1,4.49,1.1c1.523.69,3.7,2.11,3.793,3.343.216,2.82-2.507,1.74-4.148,1.993-.779.12-1.57.173-2.342.322-1.93.375-2.956,3.886-5.218,2.127-1.366-1.063-1.178-3.451-3.29-4.772-2-1.252-.665-3.9,1.922-4.1C562.148,163.566,563.213,163.635,565.887,163.635Z" transform="translate(-83.403 -86.351)" fill="#8496b0"/><path d="M115.831,176.126c1.673,1.273,3.243,1.85,3.623,2.869,1.376,3.689,2.377,7.519,3.4,11.329a2.5,2.5,0,0,1-1.675.936c-3.555-.758-8.735-7.145-8.3-10.68C113.06,179.117,114.649,177.828,115.831,176.126Z" transform="translate(-70.25 -86.72)" fill="#8496b0"/><path d="M509.927,276.39a5.879,5.879,0,0,1-7.211,5.343,30.35,30.35,0,0,0-4.7-.473c-1.331-.056-2.671.071-4.006.116.841-1.588,1.343-4.139,2.588-4.578a49.194,49.194,0,0,1,10.788-2.082C508.233,274.623,509.237,275.91,509.927,276.39Z" transform="translate(-81.507 -89.632)" fill="#8496b0"/><path d="M97.341,141.744c4.341.544,6.282,4.133,8.244,6.984.875,1.271-.616,4.343-1.362,6.484-.336.967-1.366,1.395-2.3.067-2.267-3.244-4.707-6.369-6.93-9.642-.487-.718-.805-2.18-.411-2.713C95.106,142.223,96.408,142.1,97.341,141.744Z" transform="translate(-69.705 -85.705)" fill="#8496b0"/><path d="M637.142,186.291c4.626,1.038,9.258,2.055,13.869,3.159a1.658,1.658,0,0,1,.868,1.205c.039.263-.531.77-.921.919-6.52,2.49-12.4.346-18.137-2.613a2.033,2.033,0,0,1-.858-1.275c-.04-.182.656-.738,1.043-.767,1.331-.1,2.675-.037,4.013-.037Z" transform="translate(-85.582 -87.021)" fill="#8496b0"/><path d="M632.166,173.59a12.717,12.717,0,0,1,10.711,4.212c.7.7,3.261.437,1.826,2.38-.9,1.222-1.449,3.122-4.237,2.285-3.663-1.1-5.468-4.34-8.546-5.993-.652-.35-.792-1.655-1.167-2.52Z" transform="translate(-85.546 -86.644)" fill="#8496b0"/><path d="M528.708,132.049c.073-4.1,4.134-4.18,6.318-6.141.191-.172,1.451.462,1.868.993,1.714,2.184,1.108,6.366-1.412,7.707-1.849.984-4.132,1.373-5.345-1.43-.258-.6-1.1-.942-1.671-1.4Z" transform="translate(-82.525 -85.236)" fill="#8496b0"/><path d="M526.96,190.016c-2-.331-3.59-.454-5.095-.873-2.813-.782-3.7-2.36-3.288-5.249.314-2.175,1.914-2.641,3.436-1.955a32.55,32.55,0,0,1,5.928,3.8c.754.565,1.8,2.068,1.605,2.328A9.988,9.988,0,0,1,526.96,190.016Z" transform="translate(-82.23 -86.883)" fill="#8496b0"/><path d="M86.617,129.388c-.625.521-1.345,1.594-2.177,1.69a4.36,4.36,0,0,1-2.847-1.149c-2.318-1.942-5.5-3.235-5.743-6.875-.016-.242.79-.744,1.241-.779,3.079-.238,8.524,3.262,9.453,6.013A5.592,5.592,0,0,1,86.617,129.388Z" transform="translate(-69.157 -85.13)" fill="#8496b0"/><path d="M594.371,250.615c-.97-.3-2.541,1.247-2.82-1.054-.26-2.154-.2-4.263,2.1-5.4.144-.071.867.772,1.142,1.285a15.487,15.487,0,0,1,.8,2.161c.293-.634.542-1.293.888-1.9a32.08,32.08,0,0,1,2.435-3.872c.164-.208,1.741.177,1.845.528.518,1.761-2.631,8.2-4.214,8.653C595.911,251.2,595.1,250.768,594.371,250.615Z" transform="translate(-84.385 -88.659)" fill="#8496b0"/><path d="M558.945,188.005c1.273.93,2.744,1.607,3.476,2.754.259.407-1.089,2.2-2.035,2.942-2.281,1.781-6.913.861-8.256-1.573a1.964,1.964,0,0,1,.659-1.812C554.67,189.458,556.659,188.835,558.945,188.005Z" transform="translate(-83.222 -87.071)" fill="#8496b0"/><path d="M461.847,317.8c.233,2.51.092,5.1-2.521,6.181-2.055.852-4.738,3.642-6.45,1.28-1.842-2.541,1.643-3.974,3.389-5.153,1.651-1.116,3.859-1.407,5.823-2.061Z" transform="translate(-80.277 -90.905)" fill="#8496b0"/><path d="M139.751,207.788c-.717,1.257-1.239,2.172-1.762,3.087a14.235,14.235,0,0,1-2.3-1.721,6.651,6.651,0,0,1-1.035-2.12c-.921-2.394-3.349-4.32-2.314-7.3a1.166,1.166,0,0,1,1.063-.312A16.14,16.14,0,0,1,139.751,207.788Z" transform="translate(-70.818 -87.407)" fill="#8496b0"/><path d="M422.167,253.542c-.672,2.316-1.311,4.556-2.02,6.774a1.915,1.915,0,0,1-1.192-.213c-2.292-2.111-1.036-4.322-.162-6.556.283-.724.077-1.662.426-2.329a2.4,2.4,0,0,1,1.62-.951c.3-.048.912.567,1.044.989A11.493,11.493,0,0,1,422.167,253.542Z" transform="translate(-79.252 -88.91)" fill="#8496b0"/><path d="M345.883,263.183c3.5-.054,5.76,1.672,7.7,3.932a1.671,1.671,0,0,1,.116,1.442c-.093.234-.858.422-1.2.3-2.459-.89-4.9-1.827-7.309-2.857a1.43,1.43,0,0,1-.492-1.316A6.128,6.128,0,0,1,345.883,263.183Z" transform="translate(-77.097 -89.292)" fill="#8496b0"/><path d="M113.8,170l-1.66,1.551c-.573-.677-1.168-1.336-1.7-2.044-.137-.181-.071-.516-.1-.781q-.258-2.539-.513-5.077a4.721,4.721,0,0,1,1.521.282C113.42,165.115,114.2,166.967,113.8,170Z" transform="translate(-70.161 -86.352)" fill="#8496b0"/><path d="M526.268,286.2c-1.59-.971-4.172.459-5.506-1.855,1.891-.49,3.766-1.057,5.68-1.43a3.381,3.381,0,0,1,2.268.339,3.018,3.018,0,0,1,.981,1.865c.058.287-.53.944-.914,1.031A12.184,12.184,0,0,1,526.268,286.2Z" transform="translate(-82.297 -89.873)" fill="#8496b0"/><path d="M127.339,191.948c2.061.617,3.579,3.616,2.693,5.5a1.473,1.473,0,0,1-1.268.547c-1.781-.325-3.495-3.793-2.678-5.43C126.252,192.232,126.909,192.147,127.339,191.948Z" transform="translate(-70.635 -87.188)" fill="#8496b0"/><path d="M443.447,242.97c-1.056.378-2.149,1.165-3,.961a3.119,3.119,0,0,1-1.948-2.2,4.607,4.607,0,0,1,1.381-2.957c.217-.238,1.81.33,2.317.92C442.806,240.4,442.935,241.532,443.447,242.97Z" transform="translate(-79.868 -88.569)" fill="#8496b0"/><path d="M554.267,280.128c-1.472,1.309-2.311,2.638-3.125,2.623a3.557,3.557,0,0,1-2.522-2.037,1.739,1.739,0,0,1,1.943-2.478C551.6,278.367,552.553,279.216,554.267,280.128Z" transform="translate(-83.116 -89.736)" fill="#8496b0"/><path d="M439.525,315.4c.513,1.966,1.093,2.953.935,3.8-.5,2.666-2.61,2.031-4.406,1.8a5.3,5.3,0,0,1-1.424-.651Z" transform="translate(-79.754 -90.834)" fill="#8496b0"/><path d="M119.161,162.423c-1.215.908-2.381,2.178-2.746,1.978-1.017-.554-2.222-1.658-2.339-2.663-.081-.7,1.521-1.587,2.37-2.39Z" transform="translate(-70.286 -86.225)" fill="#8496b0"/><path d="M165.435,242.559c-1.826.265-2.935.776-3.668.448a11.85,11.85,0,0,1-2.716-2.374c.942-.247,2-.886,2.8-.643C162.917,240.316,163.781,241.321,165.435,242.559Z" transform="translate(-71.614 -88.605)" fill="#8496b0"/><path d="M538.535,269a22.632,22.632,0,0,1-3.305,1.994c-.235.094-1.4-1.15-1.3-1.349a21.8,21.8,0,0,1,2.052-2.92Z" transform="translate(-82.686 -89.396)" fill="#8496b0"/><path d="M626.968,179.787c-1.331.83-2.2,1.8-2.819,1.656a3.127,3.127,0,0,1-2.059-1.946c-.116-.626,1.007-1.483,1.581-2.237Z" transform="translate(-85.29 -86.754)" fill="#8496b0"/></g></g></g></svg>