<svg xmlns="http://www.w3.org/2000/svg" width="229.999" height="206.465" viewBox="0 0 229.999 206.465"><defs><style>.a{opacity:0.5;}.b{fill:#3f3d56;}.c{fill:#e6e6e6;}.d{fill:#8496b0;}.e{fill:#fff;}</style></defs><g class="a" transform="translate(0 0)"><path class="b" d="M546.56,273.118a.4.4,0,0,1-.23-.072L434.736,195.329a2.024,2.024,0,0,0-2.311,0l-110.79,77.712a.4.4,0,1,1-.463-.661l110.79-77.712a2.834,2.834,0,0,1,3.236-.005l111.594,77.717a.4.4,0,0,1-.231.735Z" transform="translate(-318.579 -194.163)"/><path class="c" d="M23.264,86.673,128.988,8.319,235.514,92.248,134.435,152.169,79.558,139.661Z" transform="translate(-13.877 -4.962)"/><path class="d" d="M408.438,643.49h-52.23a2.44,2.44,0,1,1,0-4.88h52.23a2.44,2.44,0,1,1,0,4.88Z" transform="translate(-338.125 -459.272)"/><path class="d" d="M374.947,617.49H356.208a2.44,2.44,0,1,1,0-4.88h18.739a2.44,2.44,0,1,1,0,4.88Z" transform="translate(-338.125 -443.763)"/><path class="e" d="M505.861,335.129a3.052,3.052,0,0,1-1.158-.227l-65.2-27.055V223.162a2.828,2.828,0,0,1,2.825-2.825H567.412a2.828,2.828,0,0,1,2.825,2.825v84.745l-.123.052-63.06,26.93A3.074,3.074,0,0,1,505.861,335.129Z" transform="translate(-389.263 -209.776)"/><path class="b" d="M505.563,335.032a3.257,3.257,0,0,1-1.235-.242L439,307.684v-84.82a3.03,3.03,0,0,1,3.026-3.026H567.114a3.03,3.03,0,0,1,3.026,3.026v84.878l-63.305,27.035a3.272,3.272,0,0,1-1.272.256Zm-65.756-27.887,64.829,26.9a2.469,2.469,0,0,0,1.884-.011l62.814-26.825V222.863a2.222,2.222,0,0,0-2.219-2.219H442.026a2.222,2.222,0,0,0-2.219,2.219Z" transform="translate(-388.965 -209.477)"/><path class="b" d="M542.175,387.837h-.081l-46.323,19.78L432.392,434.68a2.044,2.044,0,0,1-1.566.008L365.438,407.56l-47.461-19.691-.072-.032h-.081A2.828,2.828,0,0,0,315,390.662V513.328a2.828,2.828,0,0,0,2.825,2.825h224.35A2.828,2.828,0,0,0,545,513.328V390.662A2.828,2.828,0,0,0,542.175,387.837Zm2.018,125.491a2.018,2.018,0,0,1-2.018,2.017H317.825a2.018,2.018,0,0,1-2.018-2.017V390.662a2.022,2.022,0,0,1,1.941-2.018l47.69,19.788,65.078,27a2.873,2.873,0,0,0,2.2-.012l63.06-26.93,46.484-19.849a2.024,2.024,0,0,1,1.937,2.018Z" transform="translate(-315 -309.688)"/><path class="d" d="M548.66,325.025a11.1,11.1,0,0,1-6.676-2.218l-.119-.09-25.143-19.25a11.17,11.17,0,1,1,13.588-17.734L546.6,298.221l38.486-50.191a11.17,11.17,0,0,1,15.661-2.067l-.239.325.245-.32a11.183,11.183,0,0,1,2.067,15.662l-45.269,59.036A11.175,11.175,0,0,1,548.66,325.025Z" transform="translate(-432.715 -223.685)"/></g></svg>