<svg xmlns="http://www.w3.org/2000/svg" xmlns:xlink="http://www.w3.org/1999/xlink" width="342" height="282" viewBox="0 0 342 282"><defs><clipPath id="a"><rect width="342" height="282" transform="translate(1024 146)" fill="#fff" stroke="#707070" stroke-width="1"/></clipPath></defs><g transform="translate(-1024 -146)" clip-path="url(#a)"><g transform="translate(902.845 136.255)" opacity="0.7"><path d="M702.813,500.313a93.382,93.382,0,0,1-91.005-73.1,74.774,74.774,0,0,1,56.8-89.055,59.864,59.864,0,0,1,71.379,45.525,48.059,48.059,0,0,1-36.506,57.238,38.715,38.715,0,0,1-43.3-21.476.566.566,0,0,1,1.029-.473,37.573,37.573,0,0,0,42.028,20.843,46.925,46.925,0,0,0,35.645-55.888,58.732,58.732,0,0,0-70.029-44.664,73.64,73.64,0,0,0-55.937,87.7A92.191,92.191,0,0,0,722.712,497a115.093,115.093,0,0,0,77.159-58.958.566.566,0,0,1,1,.527A116.224,116.224,0,0,1,722.957,498.1a93.231,93.231,0,0,1-20.145,2.21Z" transform="translate(-367.85 -216.975)" fill="#ddd"/><path d="M856.056,302.847a.567.567,0,0,1-.562-.506,117,117,0,0,0-2.087-12.737c-14.791-66.88-75.152-114.458-143.525-113.068a.566.566,0,0,1-.023-1.133A145.387,145.387,0,0,1,854.513,289.36a118.144,118.144,0,0,1,2.108,12.861.566.566,0,0,1-.5.623A.575.575,0,0,1,856.056,302.847Z" transform="translate(-410.9 -147)" fill="#ddd"/><path d="M413.205,428.361a.566.566,0,0,1-.552-.444A181.378,181.378,0,0,1,471.847,250.77a.566.566,0,1,1,.737.86,180.247,180.247,0,0,0-58.826,176.042.566.566,0,0,1-.554.689Z" transform="translate(-280.38 -179.637)" fill="#ddd"/><path d="M618.279,216.449H529.932a9.638,9.638,0,0,1-9.628-9.628V134.9a9.639,9.639,0,0,1,9.628-9.628h88.347a9.638,9.638,0,0,1,9.628,9.628v71.924a9.638,9.638,0,0,1-9.628,9.628ZM529.932,126.4a8.5,8.5,0,0,0-8.495,8.495v71.924a8.5,8.5,0,0,0,8.495,8.495h88.347a8.5,8.5,0,0,0,8.495-8.495V134.9a8.5,8.5,0,0,0-8.495-8.495Z" transform="translate(-328.936 -125.269)" fill="#bbb"/><path d="M640.223,161.126H595.636a1.547,1.547,0,0,1-1.572-1.41,1.49,1.49,0,0,1,1.488-1.57h45.387c1.5,1.314.584,2.979-.716,2.979Z" transform="translate(-360.922 -139.527)" fill="#ccc"/><path d="M640.223,174.935H595.636a1.547,1.547,0,0,1-1.572-1.41,1.49,1.49,0,0,1,1.488-1.57h45.387c1.5,1.314.584,2.979-.716,2.979Z" transform="translate(-360.922 -145.516)" fill="#ccc"/><path d="M568.117,170.217H554.51a1.677,1.677,0,0,1-1.676-1.676V152.483a1.678,1.678,0,0,1,1.676-1.676h13.608a1.678,1.678,0,0,1,1.676,1.676v16.058A1.677,1.677,0,0,1,568.117,170.217Z" transform="translate(-343.043 -136.344)" fill="#1f9968"/><path d="M622.028,203.211H553.98a1.547,1.547,0,0,1-1.572-1.41,1.49,1.49,0,0,1,1.488-1.57h68.849c1.5,1.314.584,2.979-.716,2.979Z" transform="translate(-342.857 -157.778)" fill="#ccc"/><path d="M622.028,217.025H553.98a1.547,1.547,0,0,1-1.572-1.41,1.49,1.49,0,0,1,1.488-1.57h68.849c1.5,1.314.584,2.979-.716,2.979Z" transform="translate(-342.857 -163.769)" fill="#ccc"/><path d="M622.028,230.83H553.98a1.547,1.547,0,0,1-1.572-1.41,1.49,1.49,0,0,1,1.488-1.57h68.849c1.5,1.314.584,2.979-.716,2.979Z" transform="translate(-342.857 -169.756)" fill="#ccc"/><path d="M622.028,244.643H553.98a1.547,1.547,0,0,1-1.572-1.41,1.49,1.49,0,0,1,1.488-1.57h68.849c1.5,1.314.584,2.979-.716,2.979Z" transform="translate(-342.857 -175.746)" fill="#ccc"/><path d="M622.028,258.45H553.98a1.547,1.547,0,0,1-1.572-1.41,1.49,1.49,0,0,1,1.488-1.57h68.849c1.5,1.314.584,2.979-.716,2.979Z" transform="translate(-342.857 -181.734)" fill="#ccc"/><path d="M959.022,465.637H895.029a7.549,7.549,0,0,1-7.54-7.54V406a7.549,7.549,0,0,1,7.54-7.54h64a7.549,7.549,0,0,1,7.54,7.54v52.1A7.549,7.549,0,0,1,959.022,465.637Zm-63.993-66.047A6.415,6.415,0,0,0,888.622,406v52.1a6.415,6.415,0,0,0,6.407,6.408h63.995a6.415,6.415,0,0,0,6.408-6.407V406a6.415,6.415,0,0,0-6.408-6.407Z" transform="translate(-488.174 -243.744)" fill="#bbb"/><path d="M975.355,425.431h-32.3a1.12,1.12,0,0,1-1.139-1.021A1.079,1.079,0,0,1,943,423.273h32.88c1.083.952.423,2.158-.519,2.158Z" transform="translate(-511.778 -254.505)" fill="#ccc"/><path d="M975.355,435.435h-32.3a1.12,1.12,0,0,1-1.139-1.021A1.079,1.079,0,0,1,943,433.277h32.877c1.083.952.423,2.158-.519,2.158Z" transform="translate(-511.778 -258.844)" fill="#ccc"/><path d="M923.124,432.017h-9.857a1.215,1.215,0,0,1-1.214-1.214V419.171a1.215,1.215,0,0,1,1.214-1.214h9.857a1.215,1.215,0,0,1,1.214,1.214V430.8a1.215,1.215,0,0,1-1.214,1.214Z" transform="translate(-498.827 -252.2)" fill="#1f9968"/><path d="M962.171,455.917H912.879a1.12,1.12,0,0,1-1.139-1.021,1.079,1.079,0,0,1,1.078-1.137H962.69c1.083.952.423,2.158-.519,2.158Z" transform="translate(-498.69 -267.726)" fill="#ccc"/><path d="M962.171,465.923H912.879a1.12,1.12,0,0,1-1.139-1.021,1.079,1.079,0,0,1,1.078-1.137H962.69c1.083.952.423,2.158-.519,2.158Z" transform="translate(-498.69 -272.066)" fill="#ccc"/><path d="M962.173,475.923h-49.29a1.12,1.12,0,0,1-1.139-1.021,1.079,1.079,0,0,1,1.077-1.137h49.872c1.083.952.423,2.158-.519,2.158Z" transform="translate(-498.692 -276.402)" fill="#ccc"/><path d="M962.171,485.928H912.879a1.12,1.12,0,0,1-1.139-1.021,1.079,1.079,0,0,1,1.078-1.137H962.69c1.083.952.423,2.158-.519,2.158Z" transform="translate(-498.69 -280.741)" fill="#ccc"/><path d="M962.173,495.929h-49.29a1.12,1.12,0,0,1-1.139-1.021,1.079,1.079,0,0,1,1.077-1.137h49.872c1.083.952.423,2.158-.519,2.158Z" transform="translate(-498.692 -285.078)" fill="#ccc"/><path d="M701.236,450.806H660.663a4.993,4.993,0,0,1-4.988-4.988v-33.03a4.993,4.993,0,0,1,4.988-4.988h40.573a4.993,4.993,0,0,1,4.988,4.988v33.03A4.993,4.993,0,0,1,701.236,450.806Zm-40.573-41.873a3.859,3.859,0,0,0-3.855,3.855v33.03a3.859,3.859,0,0,0,3.855,3.855h40.573a3.859,3.859,0,0,0,3.855-3.855v-33.03a3.859,3.859,0,0,0-3.855-3.855Z" transform="translate(-387.643 -247.795)" fill="#bbb"/><path d="M701.6,448.117h-27.75a2.548,2.548,0,0,1,0-5.1H701.6a2.548,2.548,0,0,1,0,5.1Z" transform="translate(-394.42 -263.069)" fill="#1f9968"/><path d="M700.276,429.617H683.852a2.548,2.548,0,0,1,0-5.1h16.423a2.548,2.548,0,1,1,0,5.1Z" transform="translate(-398.757 -255.046)" fill="#1f9968"/><path d="M701.6,463.117h-27.75a2.548,2.548,0,0,1,0-5.1H701.6a2.548,2.548,0,0,1,0,5.1Z" transform="translate(-394.42 -269.574)" fill="#1f9968"/><circle cx="7.929" cy="7.929" r="7.929" transform="translate(136.223 127.531)" fill="#ddd"/><circle cx="7.929" cy="7.929" r="7.929" transform="translate(388.239 57.873)" fill="#ddd"/><circle cx="7.929" cy="7.929" r="7.929" transform="translate(301.591 271.944)" fill="#ddd"/></g></g></svg>